<svg
   version="1.1"
   viewBox="0 0 2048 1267"
   width="1280"
   height="1280"
   id="svg1074"
   sodipodi:docname="2iP4HCzUpwrYM3LyOsCq5FlerdT.svg"
   xmlns:inkscape="http://www.inkscape.org/namespaces/inkscape"
   xmlns:sodipodi="http://sodipodi.sourceforge.net/DTD/sodipodi-0.dtd"
   xmlns="http://www.w3.org/2000/svg"
   xmlns:svg="http://www.w3.org/2000/svg">
  <defs
     id="defs1078" />
  <sodipodi:namedview
     id="namedview1076"
     pagecolor="#ffffff"
     bordercolor="#000000"
     borderopacity="0.25"
     inkscape:showpageshadow="2"
     inkscape:pageopacity="0.0"
     inkscape:pagecheckerboard="0"
     inkscape:deskcolor="#d1d1d1"
     showgrid="false" />
  <path
     d="m 1050,140 h 11 l 14,2 16,5 9,4 6,3 16,10 13,12 11,11 8,10 10,15 9,18 6,16 6,25 3,15 2,34 9,6 6,7 4,5 11,8 6,7 8,16 2,6 v 5 l 10,-3 10,-4 16,-6 12,-3 1,-1 9,-2 29,-6 22,-3 12,-1 h 63 l 24,3 31,7 13,4 9,4 7,3 16,8 12,8 9,7 10,9 12,15 9,15 8,14 6,17 5,16 4,32 v 25 l -4,10 -6,20 -12,27 -12,23 -10,19 -10,21 -8,21 -5,19 -2,15 v 16 l 3,15 7,20 10,19 13,19 10,12 5,7 h 5 l 2,-4 8,-7 5,-1 8,4 18,13 14,11 3,1 -3,-29 v -20 l 4,-15 4,-10 8,-13 5,-5 8,-6 9,-3 h 15 l 9,4 8,6 5,7 3,10 v 9 l -2,19 2,-1 7,-26 5,-15 7,-14 8,-10 9,-7 8,-3 4,-1 h 14 v 2 l 5,1 6,4 2,3 v 23 l -1,12 7,-1 v -2 l 19,-14 11,-7 13,-6 13,-4 h 18 l 8,4 10,9 5,10 1,4 v 15 l -6,12 -8,9 -11,5 -8,2 h -35 l -17,2 -19,5 -7,3 -1,3 2,3 6,2 v 2 h 3 v 2 l 4,1 4,5 5,4 3,7 v 4 h 2 v 10 l -7,9 -5,2 v 2 l -22,1 -18,2 -11,2 v 4 l 9,2 10,4 10,5 4,4 v 7 h -2 l -2,4 -8,8 -4,1 v 2 h -3 v 2 l -15,7 -8,3 -22,2 21,4 11,5 9,6 7,8 3,7 v 6 l -6,5 -14,7 1,6 1,1 v 14 l -5,12 -8,10 -5,2 -3,-1 5,-1 v -2 l 5,-4 5,-9 1,-4 h 2 l -1,-18 -2,-2 h -7 l -9,7 -5,13 -1,3 v 12 l 3,1 1,-2 h 2 v 7 l -3,14 -2,21 -2,4 -1,-3 3,-26 1,-4 v -8 l -5,-3 v -16 l 3,-9 h 2 l 2,-6 4,-4 1,-3 h -19 l -25,-5 -9,-3 -6,-1 3,35 2,4 h 2 l 2,-6 5,-6 4,-2 5,1 4,4 1,5 h 2 l 1,2 v 13 l -6,15 -4,6 -6,3 h -2 v 18 l 2,22 -2,-1 -3,-17 v -22 h -2 l -7,-11 -2,3 -5,17 -7,15 -4,10 -1,3 v 15 l 10,-2 22,-7 12,-5 22,-11 15,-9 18,-11 16,-9 15,-8 14,-6 5,-3 h 2 v -5 l 5,-4 1,-2 h 3 v -2 l 9,-4 7,-2 h 13 l 6,3 3,3 1,9 -4,5 -17,7 -4,1 h -15 l -6,-2 -1,-1 h -8 l -25,12 -13,7 h -2 v 2 l -9,5 -25,15 -19,10 -14,6 2,5 8,10 8,9 7,1 h 16 l 9,3 11,8 4,4 v 2 l 113,1 8,6 4,6 1,5 v 8 l -6,8 -8,3 -21,1 h -183 l -763,-2 -274,-1 H 323 l -91,-1 v 2 h -22 l -40,-1 v -2 l -5,-1 -5,-4 -1,-5 h -2 v -12 l 3,-6 7,-7 68,-1 8,-1 9,-8 8,-5 h 3 v -2 l 6,-3 6,-2 v -2 l 7,-2 1,-3 8,-5 1,-3 v -8 l -8,-6 -6,-2 h -8 l -12,5 -27,14 -12,4 h -14 v -2 l -6,-1 -12,-12 -1,-4 h -2 l -2,-6 h -2 v -3 h -2 l -6,-11 -7,-11 -1,-3 -3,-1 -3,-4 v -2 l -4,-2 v -2 l 8,1 7,2 v 2 l 7,1 25,7 h 16 l 6,-3 8,-8 1,-3 v -8 l -5,-7 -5,-3 h -16 l -9,2 h -5 v 2 h -13 l -5,-3 -10,-5 -14,-12 v -2 h -2 l -1,-4 h -2 l -2,-6 h -2 l -13,-29 3,-1 21,6 4,1 h 26 l 14,-1 2,-1 -1,-4 -7,-4 -16,-6 -15,-6 -10,-5 -12,-11 -7,-10 -7,-12 -7,-19 -4,-16 1,-5 26,-5 9,-1 h 25 v 2 l 9,1 10,5 9,5 v 2 l 5,2 10,9 9,8 v 2 l 5,2 4,2 h 3 l -1,-8 -5,-13 -11,-18 -13,-14 -4,-4 -3,-2 v -2 l 17,-2 h 14 l 14,2 15,5 12,7 8,10 6,13 5,17 5,6 5,2 h 11 l 7,-6 3,-10 -1,-9 -4,-7 v -2 h -2 v -3 h -2 l -5,-7 -5,-4 -7,-8 -7,-7 v -2 l -4,-2 -1,-3 h -2 l 1,-3 7,2 13,2 23,2 18,3 10,4 4,2 4,5 v 6 l -9,27 -5,20 -2,20 -9,-1 -1,1 v 10 l 1,3 10,2 11,47 11,33 8,20 3,6 v 3 h 130 l 1,2 v 42 h 7 l -1,-43 h 8 l 1,21 v 21 l 6,1 v -19 l 1,-24 1,-1 h 61 l 16,1 v 24 l -1,18 -1,1 h -21 l -1,9 H 486 l -7,8 v 9 l 4,8 6,4 99,1 1,5 h 767 l 19,-2 -25,-1 -2,-1 -1,-8 -1,-187 v -72 l -1,-66 -1,-40 -5,-2 -11,-3 -9,-1 h -35 l -2,-1 -13,1 h -147 l -5,-5 -3,-1 1,5 -1,1 h -71 l 1,-2 h 2 l 2,-5 13,-20 21,-32 14,-22 16,-24 12,-19 1,-4 -7,-1 -7,-2 -15,-3 h -5 l -5,16 -9,17 -11,12 -10,8 -12,6 -15,4 -6,1 h -12 l -13,-2 -13,-5 -5,-3 h -2 l -1,11 -2,9 -4,17 1,5 8,11 10,16 6,9 v 2 h -46 v -3 l -2,2 h -8 l -1,1 H 753 l 1,-7 5,-29 5,-14 8,-9 14,-10 27,-15 19,-10 31,-14 11,-2 -5,-8 -6,-13 -9,-32 -4,-27 -2,-5 -1,-34 -1,2 h -2 l 1,7 -1,1 -1,8 -1,1 h -5 l -8,-7 v -3 h -2 l -4,-5 -2,-6 -2,-5 -2,-6 3,-3 v -5 l 9,1 7,4 10,8 11,6 15,5 8,2 15,2 2,1 h 29 l 25,-4 4,-1 17,-1 -2,-9 -2,-2 -6,4 -26,5 -7,1 h -29 l -20,-4 -15,-4 -9,-5 -4,-3 1,-13 3,-19 h -17 l -3,-1 -2,-4 -6,-5 -8,-16 v -17 l -5,-2 -9,-8 -11,-16 -2,-5 v -15 l 4,-11 8,-11 9,-8 8,-6 7,-10 5,-3 2,-31 4,-27 4,-16 6,-16 8,-16 10,-16 9,-11 10,-10 10,-8 15,-10 15,-6 11,-4 4,1 -16,8 -10,6 -3,1 v 2 l -10,8 -5,5 h -2 l -2,4 -6,5 -9,11 -9,13 -8,16 -7,18 -6,20 -2,8 -1,10 5,-1 h 11 l 1,-11 6,-22 7,-18 h 2 l 1,-6 h 2 l 2,-7 h 2 l 1,-5 h 2 v -3 h 2 v -3 l 5,-5 9,-11 8,-7 9,-8 4,-3 h 2 v -2 h 3 v -2 h 3 v -2 l 10,-5 7,-3 11,-4 7,-2 14,-3 19,-2 h 14 l 15,1 9,3 h 2 l 2,-5 6,-9 1,-3 h -6 v -1 z"
     fill="#d8d9f7"
     id="path4" />
  <path
     d="m 586,353 h 36 l 24,4 24,6 23,8 12,5 14,6 9,4 15,6 33,2 14,2 1,-3 1,-16 h 1 l 1,12 5,10 10,13 9,7 2,1 1,17 8,16 7,6 v 3 l 20,1 -1,14 -3,18 16,8 25,6 7,1 h 29 l 29,-5 8,-3 2,-5 h 1 l 3,9 v 6 l -3,1 -14,1 -15,3 -14,2 h -29 l -8,-2 -13,-2 -14,-4 -16,-8 -14,-11 -12,-3 1,7 -4,1 5,9 1,4 1,6 3,1 v 2 h 2 l 3,5 5,4 h 5 l 1,-8 1,-5 v -3 h 2 l 2,-4 1,36 2,5 4,27 10,35 8,16 2,2 -4,1 -13,4 -38,18 -29,16 -15,10 -8,7 -4,6 -5,16 -4,25 -2,7 186,-1 4,-1 h 5 l 3,-2 -1,4 h 46 l -6,-10 -20,-30 2,-12 3,-15 1,-2 1,-11 h 4 l 11,5 10,3 9,1 h 12 l 18,-4 12,-5 11,-8 9,-9 7,-11 7,-15 3,-11 1,-1 9,1 17,3 8,3 -1,5 -11,18 -16,24 -14,22 -21,32 -11,17 -5,8 -2,1 h 70 l -1,-6 5,2 4,4 h 147 l 14,-1 5,1 h 31 l 14,2 9,4 3,3 1,38 1,84 v 78 l 1,171 51,2 v 1 l -36,1 -12,1 H 588 v -6 h -99 l -6,-4 -4,-6 -1,-3 v -9 l 8,-9 h 100 l 2,-8 21,-1 2,-42 h -77 l -2,43 h -6 l -1,-2 v -41 h -8 l 1,5 v 38 h -7 l -1,-43 -130,-1 -10,-24 -8,-23 -6,-19 -9,-38 v -5 l -8,-1 -4,-4 v -10 l 2,-2 7,1 2,1 v -13 l 3,-16 8,-27 4,-11 v -6 l -3,-4 3,1 -1,-18 h -9 l -22,-5 -8,-2 h -20 l -9,4 1,-3 5,-5 8,-6 h 2 l 1,-3 19,-9 2,-2 5,-1 18,-1 v -11 l -2,-4 -2,-1 v -2 l 9,1 -3,-7 -4,-8 v -2 h -2 l -3,-7 -5,-7 -23,-8 3,-1 10,3 h 7 l -12,-24 -5,-7 -8,-4 -8,-5 -4,-1 -1,6 -4,3 -10,1 -9,-2 -6,-3 v -2 l -7,-2 -8,-4 v -2 l -18,-4 -6,1 -7,1 3,-3 19,-9 16,-4 h 19 l 9,4 5,5 5,6 1,6 7,2 11,6 -6,-17 -12,-25 -5,-7 h 3 l -1,-9 h 2 l 4,15 8,19 2,-1 7,-16 h 2 l 1,-5 2,-1 1,6 8,-1 6,-4 11,-19 7,-11 9,-11 -11,1 -11,2 v 2 l -6,1 -1,3 -8,6 -8,10 -2,6 v 10 h -3 v -14 l 7,-11 9,-9 7,-2 v -2 l 12,-4 9,-2 8,-3 3,-10 9,-21 12,-23 12,-17 14,-19 9,-10 12,-36 4,-10 8,-16 10,-16 5,-7 13,-13 11,-9 10,-8 10,-7 12,-6 7,-4 11,-4 12,-5 25,-6 z"
     fill="#d8d8f7"
     id="path6" />
  <path
     d="m 1091,604 9,1 17,3 8,3 -1,5 -11,18 -16,24 -14,22 -21,32 -11,17 -5,8 -2,1 h 70 l -1,-6 5,2 4,4 v 2 h 148 l 1,4 -5,44 -6,32 -7,27 -7,20 -9,21 -8,16 -10,18 -12,17 -13,16 -14,15 h -2 v 2 l -8,7 -13,11 -17,12 -21,13 -19,10 -21,9 -29,10 -37,10 -36,7 -28,4 -30,3 -31,2 -34,1 h -74 l -73,-1 -20,-1 -1,-69 V 816 l 1,-55 1,-10 8,-7 8,-3 5,-1 18,-1 212,-1 4,-1 h 5 l 3,-2 -1,4 h 46 l -6,-10 -20,-30 2,-12 3,-15 1,-2 1,-11 h 4 l 11,5 10,3 9,1 h 12 l 18,-4 12,-5 11,-8 9,-9 7,-11 7,-15 3,-11 z"
     fill="#fcfcfc"
     id="path8" />
  <path
     d="m 1050,140 h 11 l 14,2 16,5 9,4 6,3 16,10 13,12 11,11 8,10 10,15 9,18 6,16 6,25 3,15 2,34 9,6 6,7 4,5 11,8 6,7 8,16 2,6 v 9 l -6,15 -9,12 -8,5 h -2 v 10 l -4,14 -6,8 h -15 l -11,-3 v -2 l -4,-1 v -2 l -4,-2 -5,-5 -4,-13 v -67 l 1,-21 3,-10 3,-3 h -6 v -22 l 2,-4 h 2 l 1,-3 3,-1 h 9 l 6,2 -7,-28 -8,-24 -8,-16 -10,-16 -12,-14 -7,-8 -13,-12 -7,-5 -5,1 -3,9 -4,5 h -2 l 5,6 6,4 15,14 6,7 4,4 6,11 9,15 4,11 3,7 5,22 1,2 v 6 l -4,5 -3,9 -1,20 -4,5 -5,10 -1,5 1,21 v 49 l 1,12 v 13 l 3,1 3,5 -1,8 -9,25 -11,41 -6,31 -1,8 -1,21 v 28 l -10,-1 -15,-3 h -5 l -5,16 -9,17 -11,12 -10,8 -12,6 -15,4 -6,1 h -12 l -13,-2 -13,-5 -5,-3 h -2 l -1,11 -2,9 -4,17 1,5 8,11 10,16 6,9 v 2 h -46 v -3 l -2,2 h -8 l -1,1 H 753 l 1,-7 5,-29 5,-14 8,-9 14,-10 27,-15 19,-10 31,-14 11,-2 -5,-8 -6,-13 -9,-32 -4,-27 -2,-5 -1,-34 -1,2 h -2 l 1,7 -1,1 -1,8 -1,1 h -5 l -8,-7 v -3 h -2 l -4,-5 -2,-6 -2,-5 -2,-6 3,-3 v -5 l 9,1 7,4 10,8 11,6 15,5 8,2 15,2 2,1 h 29 l 25,-4 4,-1 17,-1 -2,-9 -2,-2 -6,4 -26,5 -7,1 h -29 l -20,-4 -15,-4 -9,-5 -4,-3 1,-13 3,-19 h -17 l -3,-1 -2,-4 -6,-5 -8,-16 v -17 l -5,-2 -9,-8 -11,-16 -2,-5 v -15 l 4,-11 8,-11 9,-8 8,-6 7,-10 5,-3 2,-31 4,-27 4,-16 6,-16 8,-16 10,-16 9,-11 10,-10 10,-8 15,-10 15,-6 11,-4 4,1 -16,8 -10,6 -3,1 v 2 l -10,8 -5,5 h -2 l -2,4 -6,5 -9,11 -9,13 -8,16 -7,18 -6,20 -2,8 -1,10 5,-1 h 11 l 1,-11 6,-22 7,-18 h 2 l 1,-6 h 2 l 2,-7 h 2 l 1,-5 h 2 v -3 h 2 v -3 l 5,-5 9,-11 8,-7 9,-8 4,-3 h 2 v -2 h 3 v -2 h 3 v -2 l 10,-5 7,-3 11,-4 7,-2 14,-3 19,-2 h 14 l 15,1 9,3 h 2 l 2,-5 6,-9 1,-3 h -6 v -1 z"
     fill="#f6c9c9"
     id="path10" />
  <path
     d="m 282,817 11,3 33,3 18,3 10,4 4,2 4,5 v 6 l -9,27 -5,20 -2,20 -9,-1 -1,1 v 10 l 1,3 10,2 11,47 11,33 8,20 3,6 v 3 h 130 l 1,2 v 42 h 7 l -1,-43 h 8 l 1,21 v 21 l 6,1 v -19 l 1,-24 1,-1 h 61 l 16,1 v 24 l -1,18 -1,1 h -21 l -1,9 H 486 l -7,8 v 9 l 4,8 6,4 99,1 1,5 h 964 l 106,2 -2,-7 v -11 l -3,-7 -4,-6 -6,-1 4,-2 -1,-11 2,-1 2,11 10,-2 22,-7 12,-5 22,-11 15,-9 18,-11 16,-9 15,-8 14,-6 5,-3 h 2 v -5 l 5,-4 1,-2 h 3 v -2 l 9,-4 7,-2 h 13 l 6,3 3,3 1,9 -4,5 -17,7 -4,1 h -15 l -6,-2 -1,-1 h -8 l -25,12 -13,7 h -2 v 2 l -9,5 -25,15 -19,10 -14,6 2,5 8,10 8,9 7,1 h 16 l 9,3 11,8 4,4 v 2 l 113,1 8,6 4,6 1,5 v 8 l -6,8 -8,3 -21,1 h -183 l -763,-2 -274,-1 H 323 l -91,-1 v 2 h -22 l -40,-1 v -2 l -5,-1 -5,-4 -1,-5 h -2 v -12 l 3,-6 7,-7 68,-1 8,-1 9,-8 8,-5 h 3 v -2 l 6,-3 6,-2 v -2 l 7,-2 1,-3 8,-5 1,-3 v -8 l -8,-6 -6,-2 h -8 l -12,5 -27,14 -12,4 h -14 v -2 l -6,-1 -12,-12 -1,-4 h -2 l -2,-6 h -2 v -3 h -2 l -6,-11 -7,-11 -1,-3 -3,-1 -3,-4 v -2 l -4,-2 v -2 l 8,1 7,2 v 2 l 7,1 25,7 h 16 l 6,-3 8,-8 1,-3 v -8 l -5,-7 -5,-3 h -16 l -9,2 h -5 v 2 h -13 l -5,-3 -10,-5 -14,-12 v -2 h -2 l -1,-4 h -2 l -2,-6 h -2 l -13,-29 3,-1 21,6 4,1 h 26 l 14,-1 2,-1 -1,-4 -7,-4 -16,-6 -15,-6 -10,-5 -12,-11 -7,-10 -7,-12 -7,-19 -4,-16 1,-5 26,-5 9,-1 h 25 v 2 l 9,1 10,5 9,5 v 2 l 5,2 10,9 9,8 v 2 l 5,2 4,2 h 3 l -1,-8 -5,-13 -11,-18 -13,-14 -4,-4 -3,-2 v -2 l 17,-2 h 14 l 14,2 15,5 12,7 8,10 6,13 5,17 5,6 5,2 h 11 l 7,-6 3,-10 -1,-9 -4,-7 v -2 h -2 v -3 h -2 l -5,-7 -5,-4 -7,-8 -7,-7 v -2 l -4,-2 -1,-3 h -2 z"
     fill="#c5c6ef"
     id="path12" />
  <path
     d="m 1282,737 6,1 h 31 l 14,2 9,4 3,3 1,38 1,84 v 78 l 1,171 51,2 v 1 l -36,1 -12,1 H 709 l -20,-1 -2,-1 -1,-6 1,-46 h 20 l 78,1 h 69 l 34,-1 43,-3 33,-4 35,-6 30,-7 27,-8 25,-9 25,-11 20,-11 24,-16 14,-11 10,-9 4,-2 v -2 l 8,-7 10,-11 13,-17 12,-18 11,-20 11,-25 9,-25 7,-27 6,-32 3,-25 2,-23 h -148 v -1 l 147,-1 z"
     fill="#ebebf7"
     id="path14" />
  <path
     d="m 1050,140 h 11 l 14,2 16,5 9,4 6,3 16,10 13,12 11,11 8,10 10,15 9,18 6,16 6,25 3,15 2,34 9,6 6,7 4,5 11,8 6,7 8,16 2,6 v 9 l -6,15 -9,12 -8,5 h -2 v 10 l -4,14 -6,8 h -15 l -11,-3 v -2 l -4,-1 v -2 l -4,-2 -5,-5 -4,-13 v -67 l 1,-21 3,-10 3,-3 h -6 v -22 l 2,-4 h 2 l 1,-3 3,-1 h 9 l 6,2 -7,-28 -8,-24 -8,-16 -10,-16 -12,-14 -7,-8 -13,-12 -7,-5 -5,1 -3,9 -4,5 h -2 l 5,6 6,4 15,14 6,7 4,4 6,11 9,15 4,11 3,7 5,22 1,2 v 6 l -4,5 -3,9 -1,20 -4,5 -5,10 -1,4 h -2 l -6,-9 -8,-8 -12,-9 -15,-7 -19,-8 -16,-6 -20,-8 -16,-6 -17,-9 -18,-14 -12,-11 -9,-11 -10,-18 v -2 h -2 v 10 l -3,15 -7,19 -11,21 -10,14 -12,14 -8,10 -13,13 -7,8 -4,-1 2,13 v 76 l 9,2 9,3 6,7 14,19 12,13 9,9 21,14 -2,5 -7,3 -29,5 h -29 l -20,-4 -15,-4 -9,-5 -4,-3 1,-13 3,-19 h -17 l -3,-1 -2,-4 -6,-5 -8,-16 v -17 l -5,-2 -9,-8 -11,-16 -2,-5 v -15 l 4,-11 8,-11 9,-8 8,-6 7,-10 5,-3 2,-31 4,-27 4,-16 6,-16 8,-16 10,-16 9,-11 10,-10 10,-8 15,-10 15,-6 11,-4 4,1 -16,8 -10,6 -3,1 v 2 l -10,8 -5,5 h -2 l -2,4 -6,5 -9,11 -9,13 -8,16 -7,18 -6,20 -2,8 -1,10 5,-1 h 11 l 1,-11 6,-22 7,-18 h 2 l 1,-6 h 2 l 2,-7 h 2 l 1,-5 h 2 v -3 h 2 v -3 l 5,-5 9,-11 8,-7 9,-8 4,-3 h 2 v -2 h 3 v -2 h 3 v -2 l 10,-5 7,-3 11,-4 7,-2 14,-3 19,-2 h 14 l 15,1 9,3 h 2 l 2,-5 6,-9 1,-3 h -6 v -1 z"
     fill="#253053"
     id="path16" />
  <path
     d="m 1142,442 4,1 4,4 -1,8 -9,25 -11,41 -6,31 -1,8 -1,21 v 28 l -10,-1 -15,-3 h -5 l -5,16 -9,17 -11,12 -10,8 -12,6 -15,4 -6,1 h -12 l -13,-2 -13,-5 -5,-3 h -2 l -1,11 -2,9 -4,17 1,5 8,11 10,16 6,9 v 2 h -46 v -3 l -2,2 h -8 l -1,1 H 753 l 1,-7 5,-29 5,-14 8,-9 14,-10 27,-15 19,-10 31,-14 11,-2 -5,-8 -6,-13 -9,-32 -4,-27 -2,-5 -1,-34 -1,2 h -2 l 1,7 -1,1 -1,8 -1,1 h -5 l -8,-7 v -3 h -2 l -4,-5 -2,-6 -2,-5 -2,-6 3,-3 v -5 l 9,1 7,4 10,8 11,6 15,5 8,2 15,2 2,1 h 29 l 25,-4 4,-1 17,-1 -2,-9 v -8 l 5,-10 7,-6 2,-1 h 13 l 10,5 6,6 1,4 v 13 l -5,8 -7,4 -4,1 h -11 l -10,-4 -8,1 -1,2 h 11 l 4,2 v 9 l -9,44 -3,16 -1,14 8,24 6,10 7,6 8,6 7,3 8,1 h 12 l 13,-4 10,-6 12,-11 4,-7 4,-13 1,-11 4,-1 v -2 h -4 l -5,-43 -2,-10 -2,-21 -1,-4 v -11 l 20,-8 12,-6 12,-9 12,-11 11,-12 12,-17 z"
     fill="#3b41ae"
     id="path18" />
  <path
     d="m 1760,715 h 14 v 2 l 5,1 6,4 2,3 v 23 l -1,12 7,-1 v -2 l 19,-14 11,-7 13,-6 13,-4 h 18 l 8,4 10,9 5,10 1,4 v 15 l -6,12 -8,9 -11,5 -8,2 h -35 l -17,2 -19,5 -7,3 -1,3 2,3 6,2 v 2 h 3 v 2 l 4,1 4,5 5,4 3,7 v 4 h 2 v 10 l -7,9 -5,2 v 2 l -22,1 -18,2 -11,2 v 4 l 9,2 10,4 10,5 4,4 v 7 h -2 l -2,4 -8,8 -4,1 v 2 h -3 v 2 l -15,7 -8,3 -22,2 21,4 11,5 9,6 7,8 3,7 v 6 l -6,5 -14,7 1,6 1,1 v 14 l -5,12 -8,10 -5,2 -3,-1 5,-1 v -2 l 5,-4 5,-9 1,-4 h 2 l -1,-18 -2,-2 h -7 l -9,7 -5,13 -1,3 v 12 l 3,1 1,-2 h 2 v 7 l -3,14 -2,21 -2,4 -1,-3 3,-26 1,-4 v -8 l -5,-3 v -16 l 3,-9 h 2 l 2,-6 4,-4 1,-3 h -19 l -25,-5 -17,-6 -8,-26 -10,-24 -11,-18 -8,-10 -9,-11 -11,-12 -5,-5 v -2 l -3,-1 -7,-8 -10,-10 -8,-10 3,-6 9,-8 5,-1 8,4 18,13 14,11 3,1 -3,-29 v -20 l 4,-15 4,-10 8,-13 5,-5 8,-6 9,-3 h 15 l 9,4 8,6 5,7 3,10 v 9 l -2,19 2,-1 7,-26 5,-15 7,-14 8,-10 9,-7 8,-3 z"
     fill="#c5c6ef"
     id="path20" />
  <path
     d="m 1050,140 h 11 l 14,2 16,5 9,4 6,3 16,10 13,12 11,11 8,10 10,15 9,18 6,16 6,25 3,15 2,34 9,6 6,7 4,5 11,8 6,7 8,16 2,6 v 9 l -6,15 -9,12 -8,5 h -2 v 10 l -4,14 -6,8 h -15 l -11,-3 v -2 l -4,-1 v -2 l -4,-2 -5,-5 -4,-13 v -67 l 1,-21 3,-10 3,-3 h -6 v -22 l 2,-4 h 2 l 1,-3 3,-1 h 9 l 6,2 -7,-28 -8,-24 -8,-16 -10,-16 -12,-14 -7,-8 -13,-12 -7,-5 -5,1 -3,9 -4,5 h -2 l -1,2 -11,-7 -5,-3 -8,-3 -10,-4 -21,-6 -22,-2 h -11 l -15,1 -16,4 -24,8 -16,8 -4,1 v 2 h -3 v 2 l -11,8 -15,14 -7,11 h -2 l -2,6 h -2 l -1,4 -10,19 -10,30 -1,7 -1,1 -1,7 3,1 4,9 1,22 5,5 6,10 2,15 v 76 l 9,2 9,3 6,7 14,19 12,13 9,9 21,14 -2,5 -7,3 -29,5 h -29 l -20,-4 -15,-4 -9,-5 -4,-3 1,-13 3,-19 h -17 l -3,-1 -2,-4 -6,-5 -8,-16 v -17 l -5,-2 -9,-8 -11,-16 -2,-5 v -15 l 4,-11 8,-11 9,-8 8,-6 7,-10 5,-3 2,-31 4,-27 4,-16 6,-16 8,-16 10,-16 9,-11 10,-10 10,-8 15,-10 15,-6 11,-4 4,1 -16,8 -10,6 -3,1 v 2 l -10,8 -5,5 h -2 l -2,4 -6,5 -9,11 -9,13 -8,16 -7,18 -6,20 -2,8 -1,10 5,-1 h 11 l 1,-11 6,-22 7,-18 h 2 l 1,-6 h 2 l 2,-7 h 2 l 1,-5 h 2 v -3 h 2 v -3 l 5,-5 9,-11 8,-7 9,-8 4,-3 h 2 v -2 h 3 v -2 h 3 v -2 l 10,-5 7,-3 11,-4 7,-2 14,-3 19,-2 h 14 l 15,1 9,3 h 2 l 2,-5 6,-9 1,-3 h -6 v -1 z"
     fill="#c9ccda"
     id="path22" />
  <path
     d="m 1595,532 2,3 17,38 11,27 11,34 7,28 5,26 5,36 1,9 v 11 l 3,1 -3,3 h -2 l -2,4 -8,14 -6,18 -1,5 v 20 l 2,22 v 7 l -4,-1 -13,-10 -18,-13 -8,-4 -5,1 -9,8 -3,3 -4,-1 -10,-13 -8,-10 -11,-17 -10,-19 -7,-21 -2,-12 v -16 l 3,-20 7,-23 12,-27 12,-24 12,-22 11,-24 7,-21 3,-10 2,-4 z"
     fill="#e5e5fa"
     id="path24" />
  <path
     d="m 430,501 h 1 v 54 l 3,32 8,51 1,27 -1,20 -3,19 -4,15 -1,2 -9,2 h 6 l -1,5 -5,9 h -2 l -1,5 h 2 l 1,-4 3,1 1,5 -3,9 -6,9 -5,9 -8,10 -7,11 -8,11 -4,2 -5,-6 -2,-4 1,-8 6,-15 h 15 l 5,-5 8,-13 2,-5 h -2 l -1,5 h -2 l -2,6 -7,9 -2,2 h -11 l -2,-5 h -3 v -13 l 5,-10 6,-7 6,-4 h 2 v -2 l -5,1 -1,3 -7,5 -6,10 -1,2 v 12 l 2,5 -1,5 -7,17 -5,-5 -5,-8 -4,-4 v -3 h -2 l -4,-7 v -3 l -4,-1 -4,-8 v -2 h -2 l -3,-7 -5,-7 -23,-8 3,-1 10,3 h 7 l -12,-24 -5,-7 -8,-4 -8,-5 -4,-1 -1,6 -4,3 -10,1 -9,-2 -6,-3 v -2 l -7,-2 -8,-4 v -2 l -18,-4 -6,1 -7,1 3,-3 19,-9 16,-4 h 19 l 9,4 5,5 5,6 1,6 7,2 11,6 -6,-17 -12,-25 -5,-7 h 3 l -1,-9 h 2 l 4,15 8,19 2,-1 7,-16 h 2 l 1,-5 2,-1 1,6 8,-1 6,-4 11,-19 7,-11 9,-11 -11,1 -11,2 v 2 l -6,1 -1,3 -8,6 -8,10 -2,6 v 10 h -3 v -14 l 7,-11 9,-9 7,-2 v -2 l 12,-4 9,-2 8,-3 3,-10 9,-21 12,-23 12,-17 14,-19 z"
     fill="#e5e5fa"
     id="path26" />
  <path
     d="m 1553,998 14,1 6,5 2,5 v 6 l 9,3 11,6 8,7 v 3 h 2 l 2,6 v 16 l -3,9 -8,10 -8,6 -12,6 -24,8 -5,5 -8,5 1,4 6,7 1,5 h -117 l 4,-3 3,-8 1,-1 23,-3 20,-5 6,-2 12,-1 3,-6 -2,-2 -20,9 -11,4 -12,2 h -11 l -9,-4 -5,-3 -9,-11 -4,-6 -7,-15 -6,-25 -1,-11 v -14 l 2,-9 5,-6 6,-2 z"
     fill="#ebebf7"
     id="path28" />
  <path
     d="m 1142,442 4,1 4,4 -1,8 -9,25 -11,41 -6,31 -1,8 -1,21 v 28 l -10,-1 -15,-3 h -5 l -5,16 -9,17 -11,12 -10,8 -12,6 -15,4 -6,1 h -12 l -13,-2 -13,-5 -5,-3 h -2 l -1,11 -2,9 -4,17 1,5 8,11 10,16 6,9 v 2 h -46 v -3 l -2,2 h -8 -3 l 4,-9 4,-13 6,-24 4,-24 1,-9 v -42 l -5,-30 -3,-12 -6,-18 -5,-13 -9,-17 -1,-1 -28,-1 -24,-5 -21,-8 -4,-2 v 38 l -2,-4 -1,-34 -1,2 h -2 l 1,7 -1,1 -1,8 -1,1 h -5 l -8,-7 v -3 h -2 l -4,-5 -2,-6 -2,-5 -2,-6 3,-3 v -5 l 9,1 7,4 10,8 11,6 15,5 8,2 15,2 2,1 h 29 l 25,-4 4,-1 17,-1 -2,-9 v -8 l 5,-10 7,-6 2,-1 h 13 l 10,5 6,6 1,4 v 13 l -5,8 -7,4 -4,1 h -11 l -10,-4 -8,1 -1,2 h 11 l 4,2 v 9 l -9,44 -3,16 -1,14 8,24 6,10 7,6 8,6 7,3 8,1 h 12 l 13,-4 10,-6 12,-11 4,-7 4,-13 1,-11 4,-1 v -2 h -4 l -5,-43 -2,-10 -2,-21 -1,-4 v -11 l 20,-8 12,-6 12,-9 12,-11 11,-12 12,-17 z"
     fill="#c7cbda"
     id="path30" />
  <path
     d="m 474,1034 h 36 l 1,2 v 42 h 7 l -1,-43 h 8 l 1,21 v 21 l 6,1 v -19 l 1,-24 1,-1 h 61 l 16,1 v 24 l -1,18 -1,1 h -21 l -1,9 H 486 l -7,8 v 9 l 4,8 6,4 98,1 v 6 l -53,1 h -57 l -61,-1 -1,-43 h -4 v 42 l -1,1 h -8 l -1,-1 -1,-42 -5,-1 v 44 h -80 l 1,-45 h 25 l -1,-5 1,-2 98,-1 7,-3 2,-3 1,-9 -3,-8 -6,-5 -14,-1 h -62 l -23,-1 v -5 z"
     fill="#5e63c2"
     id="path32" />
  <path
     d="m 1007,159 h 11 v 1 l -10,1 v 109 h -3 l -12,-9 -12,-11 -9,-11 -10,-18 v -2 h -2 v 10 l -3,15 -7,19 -11,21 -10,14 -12,14 -8,10 -13,13 -7,8 -4,-1 -5,-9 -3,-4 v -2 l -4,-2 -1,-22 -4,-9 -2,-1 v -7 l 1,-1 3,-14 8,-23 8,-15 4,-8 h 2 l 2,-6 h 2 l 2,-5 7,-9 14,-13 8,-6 h 2 v -2 h 3 v -2 l 11,-6 17,-7 18,-6 12,-2 2,-1 z"
     fill="#263155"
     id="path34" />
  <path
     d="m 1143,616 h 7 l 20,7 24,11 8,5 7,3 33,21 13,10 6,5 9,11 5,12 4,19 1,17 -1,1 -10,1 h -147 l -7,-6 1,-4 11,-9 8,-7 14,-12 13,-11 11,-9 13,-11 1,-4 -4,-2 v -2 l -4,-2 -9,-10 -2,-5 -4,-2 -2,-4 -5,-5 v -2 l -4,-2 -4,-5 -5,-5 z"
     fill="#3b41af"
     id="path36" />
  <path
     d="m 1050,140 h 11 l 14,2 16,5 9,4 6,3 16,10 13,12 11,11 8,10 10,15 9,18 6,16 6,25 3,15 2,34 9,6 6,7 4,5 11,8 6,7 8,16 2,6 v 9 l -6,15 -9,12 -8,5 h -2 v 10 l -4,14 -6,8 h -15 l -11,-3 v -2 l -4,-1 v -2 l -4,-2 -5,-5 -4,-13 v -67 l 1,-21 3,-10 3,-3 h -6 v -22 l 2,-4 h 2 l 1,-3 3,-1 h 9 l 6,2 -7,-28 -8,-24 -8,-16 -10,-16 -12,-14 -7,-8 -13,-12 -11,-8 -17,-9 -8,-3 -12,-5 -19,-5 -6,-1 v -1 z"
     fill="#3a40ae"
     id="path38" />
  <path
     d="m 938,154 4,1 -16,8 -10,6 -3,1 v 2 l -10,8 -5,5 h -2 l -2,4 -6,5 -9,11 -9,13 -8,16 -7,18 -6,20 -2,8 -1,10 h 17 l 3,4 1,9 v 15 l -3,2 5,15 1,7 1,19 v 20 l -1,43 -3,10 h -2 l -2,6 -4,4 -12,5 -5,1 h -12 l -5,-3 -5,-10 v -17 l -5,-2 -9,-8 -11,-16 -2,-5 v -15 l 4,-11 8,-11 9,-8 8,-6 7,-10 5,-3 2,-31 4,-27 4,-16 6,-16 8,-16 10,-16 9,-11 10,-10 10,-8 15,-10 15,-6 z"
     fill="#3a40ae"
     id="path40" />
  <path
     d="m 850,510 9,3 16,6 13,3 11,2 28,1 5,7 9,19 9,26 6,32 1,8 v 10 h -85 l -9,-19 -9,-32 -4,-27 z"
     fill="#253053"
     id="path42" />
  <path
     d="m 985,523 1,2 21,1 11,4 12,8 9,9 7,11 7,18 11,39 2,4 v 6 l -6,9 -7,7 -10,7 -12,5 -5,1 h -12 l -8,-1 -8,-4 -12,-9 -6,-7 -6,-14 -3,-10 -2,-6 1,-14 6,-31 6,-29 z"
     fill="#f6c9c9"
     id="path44" />
  <path
     d="m 1418,999 h 132 l 1,2 v 23 l -3,14 -4,10 -8,11 -11,12 -10,9 -4,3 h -4 l -6,-12 -7,-10 -9,-10 -8,-4 -3,-1 h -25 l -12,4 -6,4 -2,3 h -2 l -6,12 -3,7 -3,-3 -5,-14 -4,-18 -1,-11 v -14 l 2,-9 5,-6 z"
     fill="#fdfdfd"
     id="path46" />
  <path
     d="m 1142,442 4,1 4,4 -1,8 -9,25 -11,41 -6,31 -1,8 -1,21 v 28 l -10,-1 -19,-4 -22,-6 -5,-43 -2,-10 -2,-21 -1,-4 v -11 l 20,-8 12,-6 12,-9 12,-11 11,-12 12,-17 z"
     fill="#253054"
     id="path48" />
  <path
     d="m 1126,612 5,2 10,13 7,9 11,13 9,11 6,8 -2,4 -22,18 -32,26 -13,10 -3,2 2,5 2,4 -1,1 h -60 l 6,-11 10,-15 21,-32 14,-22 16,-24 z"
     fill="#878dd3"
     id="path50" />
  <path
     d="m 1076,122 h 36 l 10,3 10,9 7,10 10,17 3,8 v 17 l -4,4 -21,-21 -14,-10 -8,-5 -5,-2 -12,-5 -13,-4 -14,-2 h -11 l -1,6 -7,10 -3,3 -4,-1 -5,-2 -15,-1 h -14 l -19,2 -14,3 -7,2 -13,5 -13,6 h -2 v 2 h -3 v 2 h -3 v 2 l -11,8 -15,15 -7,8 -2,3 h -2 v 3 h -2 v 3 h -2 l -1,5 h -2 l -1,5 -1,2 h -2 l -1,6 h -2 l -3,10 -6,18 -4,18 -1,5 -16,1 v -10 l 6,-22 8,-22 8,-16 7,-11 8,-10 8,-9 8,-7 7,-7 5,-4 h 2 v -2 l 16,-10 11,-5 h 2 v -2 l 14,-6 22,-6 8,-1 59,-1 8,-1 6,-8 7,-5 z"
     fill="#f9f9fb"
     id="path52" />
  <path
     d="m 878,631 h 78 l 1,2 v 26 l -4,28 -6,25 -3,11 -5,14 -1,1 h -21 l -4,-15 -3,-12 -2,-3 -6,-21 -8,-22 -11,-24 -5,-8 z"
     fill="#253053"
     id="path54" />
  <path
     d="m 887,431 9,2 9,3 6,7 14,19 12,13 9,9 21,14 -2,5 -7,3 -29,5 h -29 l -20,-4 -15,-4 -9,-5 -4,-3 1,-13 5,-21 10,-4 6,-3 7,-8 4,-9 z"
     fill="#253054"
     id="path58" />
  <path
     d="m 1668,962 9,2 25,6 7,1 19,1 -1,4 -4,5 -2,4 h -2 l -2,9 v 16 l 5,3 v 8 l -3,18 -1,13 1,-2 2,-21 h 1 v 12 l -1,19 3,1 -29,15 -18,7 -23,7 -4,-1 v -15 l 4,-11 6,-12 4,-11 4,-14 2,-2 6,10 1,3 h 2 l 1,22 3,17 -2,-21 v -12 l 1,-6 6,-3 h 2 l 2,-4 5,-12 2,-5 v -15 h -2 l -3,-7 -4,-2 -7,1 -2,4 -5,8 -3,1 -2,-5 z"
     fill="#fafafc"
     id="path60" />
  <path
     d="m 613,204 h 16 l 8,3 10,6 5,4 6,10 2,6 1,9 -2,14 -8,10 -8,7 -12,6 h -18 l -6,-2 h -11 l -10,3 h -4 l 2,-9 4,-10 -1,-7 -2,-5 v -15 l 4,-11 h 2 l 1,-4 7,-7 11,-7 z"
     fill="#d8d9f8"
     id="path62" />
  <path
     d="m 380,330 h 22 l 14,7 1,3 4,2 8,10 3,6 1,6 v 17 l -6,12 -9,10 h -2 l -1,3 -5,1 v 2 l -2,1 h -6 v 2 l -4,1 h -14 l -9,-5 -2,-3 -1,-6 -11,-4 -6,-5 -2,-3 v -15 h 2 l 2,-6 8,-10 9,-7 11,-4 h 13 l 5,3 3,7 v 3 h 2 v 9 l 5,-1 v -3 l 5,1 1,5 -4,4 h -2 l -2,4 -13,12 -11,9 -3,3 -1,4 h 19 l 10,-4 8,-7 8,-17 v -13 l -4,-9 -6,-8 -7,-6 -8,-4 -6,-2 h -13 l -12,4 -9,6 -9,9 -7,11 -2,5 v 19 l 4,10 9,10 9,6 8,4 1,1 15,3 2,1 v 2 h 2 v 2 h -16 l -15,-5 -8,-6 -6,-5 -8,-13 -2,-3 -2,-7 v -15 l 4,-11 6,-11 10,-11 10,-6 z"
     fill="#d9daf8"
     id="path64" />
  <path
     d="m 1607,277 h 4 l 5,14 5,11 2,5 5,9 2,3 v 3 h 25 l 31,-3 -3,8 -6,11 -12,20 -7,9 -5,1 -8,-4 -12,-7 -6,-3 -24,-14 -13,-8 -8,-7 1,-7 8,-15 8,-13 2,-5 h 2 l 2,-6 z"
     fill="#d8d9f8"
     id="path66" />
  <path
     d="m 534,1034 h 61 l 16,1 v 24 l -1,18 -1,1 h -21 l -1,2 -75,-1 v -1 h 6 l -1,-43 h 8 l 1,21 v 21 l 6,1 v -19 l 1,-24 z"
     fill="#797dd3"
     id="path68" />
  <path
     d="m 1012,898 13,1 8,3 8,6 6,8 2,6 1,16 -6,12 -7,7 -10,5 -4,1 h -15 l -10,-5 -7,-6 -5,-8 -2,-7 v -16 l 5,-10 10,-9 6,-3 z"
     fill="#c5c6ef"
     id="path70" />
  <path
     d="m 1039,161 16,4 10,3 10,5 7,3 12,7 6,4 3,3 5,4 3,5 7,6 7,8 3,3 -2,5 -7,3 -8,1 h -42 l -9,-6 -10,-13 -10,-17 -2,-6 v -19 z"
     fill="#484e90"
     id="path72" />
  <path
     d="m 1719,576 h 12 l 9,3 10,7 10,10 6,10 2,6 v 14 l -7,9 -9,7 -9,2 -22,2 -8,4 h -4 l -10,-9 -7,-5 1,-5 9,-8 9,-3 25,-3 3,-1 v -8 l -2,-3 -5,-2 h -7 l -7,4 h -3 l -8,-10 -8,-8 1,-4 5,-3 10,-5 z"
     fill="#d8d9f8"
     id="path74" />
  <path
     d="m 316,1078 48,1 30,1 v 42 h -78 z"
     fill="#3a40ae"
     id="path76" />
  <path
     d="m 486,1086 h 100 v 30 h -99 l -6,-5 -3,-7 v -9 z"
     fill="#eaeaf6"
     id="path78" />
  <path
     d="m 426,1040 14,1 7,6 3,8 -1,9 -6,6 H 341 v -29 z"
     fill="#fafafc"
     id="path80" />
  <path
     d="m 1107,167 5,1 11,10 8,7 11,12 10,13 9,15 7,14 8,24 5,19 1,9 -6,-1 h -9 l -6,1 -3,-7 -5,-22 -5,-12 -4,-9 -11,-19 -3,-5 v -2 l -3,-1 -7,-8 -7,-7 -10,-8 -3,-2 v -2 l -4,-2 v -2 l 5,-5 4,-10 z"
     fill="#f7f7fa"
     id="path82" />
  <path
     d="m 1076,122 h 36 l 10,3 10,9 7,10 10,17 3,8 v 17 l -4,4 -21,-21 -14,-10 -8,-5 -5,-2 -12,-5 -13,-4 -14,-2 h -11 v 2 h -66 l -16,3 -17,6 -5,2 -4,-1 14,-6 22,-6 8,-1 59,-1 8,-1 6,-8 7,-5 z"
     fill="#cccfdb"
     id="path84" />
  <path
     d="m 650,179 h 17 l 12,6 9,8 5,8 3,7 v 18 l -3,5 v 6 l 5,8 2,10 h -3 l -8,-3 -4,-1 h -8 l -7,2 h -5 l -2,-23 -2,-6 -1,-5 h -2 l -1,-3 -5,-5 -9,-6 -10,-4 -7,-2 2,-5 7,-7 9,-5 z"
     fill="#d8d9f8"
     id="path86" />
  <path
     d="m 1160,288 1,3 h 2 v 2 h -2 l -1,4 -1,22 h 6 l -1,3 h -2 v 5 l -2,5 -1,21 v 67 l 4,13 8,7 1,2 3,1 v 2 l 11,2 13,1 v 2 l -8,7 -10,4 -12,-1 -9,-4 -9,-5 -2,-4 -3,-5 -2,-1 -2,-25 v -70 l -2,-1 h 2 l 1,-7 6,-10 2,-2 1,-20 3,-9 4,-5 z"
     fill="#c6c9da"
     id="path88" />
  <path
     d="m 1054,508 6,1 2,15 2,21 3,19 3,23 v 11 h 4 v 2 l -3,1 -2,15 -2,5 -3,-4 -7,-23 -7,-24 -6,-14 -8,-11 -7,-7 -15,-9 -7,-2 -22,-2 -2,2 -1,-7 -8,-2 4,-2 6,3 v 2 l 16,-1 6,-2 6,-4 15,-1 z"
     fill="#ecb2b3"
     id="path90" />
  <path
     d="m 1050,143 8,1 16,5 9,4 10,4 16,9 -4,3 -3,9 -4,5 h -2 l -1,2 -11,-7 -5,-3 -8,-3 -10,-4 -21,-6 -22,-2 h -11 l -15,1 -16,4 -24,8 -16,8 -4,1 v 2 h -3 v 2 l -11,8 -15,14 -7,11 h -2 l -2,6 h -2 l -1,4 -10,19 -5,13 -3,1 1,-6 5,-14 2,-10 h 2 l 2,-7 h 2 l 1,-5 h 2 v -3 h 2 v -3 l 5,-5 9,-11 8,-7 9,-8 4,-3 h 2 v -2 h 3 v -2 h 3 v -2 l 10,-5 7,-3 11,-4 7,-2 14,-3 19,-2 h 14 l 15,1 9,3 h 2 l 2,-5 z"
     fill="#cacdda"
     id="path94" />
  <path
     d="m 1074,599 6,1 12,3 -6,18 -9,17 -11,12 -10,8 -12,6 -15,4 -6,1 h -12 l -13,-2 -13,-5 -8,-5 v -27 l 3,1 6,8 12,9 8,4 8,1 h 12 l 13,-4 10,-6 12,-11 4,-7 4,-13 1,-11 z"
     fill="#3e44b0"
     id="path96" />
  <path
     d="m 403,730 h 2 v 2 l -9,6 -6,8 -3,7 v 13 l 3,-1 1,5 h 11 l 6,-7 5,-9 h 2 l 1,-5 h 2 l -3,9 -8,12 -4,3 h -12 l -3,-1 -6,18 1,7 1,2 v 6 h -18 l -3,6 -4,4 h -13 l -17,-4 -8,-2 h -20 l -9,4 1,-3 5,-5 8,-6 h 2 l 1,-3 19,-9 2,-2 5,-1 18,-1 v -11 l -2,-4 -2,-1 v -2 l 9,1 -1,-6 h 2 l 4,8 v 2 h 2 l 2,6 3,1 8,12 8,-18 -2,-8 v -12 l 5,-9 5,-6 5,-3 1,-2 z"
     fill="#e2e2f9"
     id="path98" />
  <path
     d="m 381,603 1,2 -4,2 h -3 l -1,3 -5,4 h -2 l -2,4 -7,9 -9,16 -1,3 h -2 l -1,4 -6,5 -9,1 -6,-2 -3,9 -4,10 1,9 7,14 4,10 -1,2 -7,-10 -8,-4 -8,-5 -4,-1 -1,6 -4,3 -10,1 -9,-2 -6,-3 v -2 l -7,-2 -8,-4 v -2 l -18,-4 -6,1 -7,1 3,-3 19,-9 16,-4 h 19 l 9,4 5,5 5,6 1,6 7,2 11,6 -6,-17 -12,-25 -5,-7 h 3 l -1,-9 h 2 l 4,15 8,19 2,-1 7,-16 h 2 l 1,-5 2,-1 1,6 8,-1 6,-4 11,-19 7,-11 9,-11 -11,1 -11,2 v 2 l -6,1 -1,3 -8,6 -8,10 -2,6 v 10 h -3 v -14 l 7,-11 9,-9 7,-2 v -2 l 12,-4 9,-2 h 14 z"
     fill="#f3f4fa"
     id="path100" />
  <path
     d="m 960,219 h 2 l 9,17 10,13 8,8 17,13 9,6 16,8 17,7 12,4 12,5 16,6 11,5 16,8 8,6 10,9 7,9 v 3 h 2 v 10 h -2 l -10,-13 -8,-7 -11,-8 -7,-4 -14,-5 -25,-10 -20,-7 -25,-11 -11,-7 -1,-3 -6,-2 -10,-8 v -2 l -4,-2 -14,-14 -10,-15 v -2 l -4,-1 -2,6 -1,-2 2,-10 z"
     fill="#eab2b4"
     id="path102" />
  <path
     d="m 430,723 1,3 -6,11 h -2 l -1,5 h 2 l 1,-4 3,1 1,5 -3,9 -6,9 -5,9 -8,10 -7,11 -8,11 -4,2 -5,-6 -2,-4 1,-8 6,-15 h 15 l 5,-5 8,-13 2,-5 h -2 l -1,5 h -2 l -2,6 -7,9 -2,2 h -11 l -2,-5 h -3 v -13 l 5,-10 6,-7 6,-4 h 2 v -3 l 10,-4 z"
     fill="#dfe0f8"
     id="path104" />
  <path
     d="m 802,422 4,1 7,6 2,15 4,13 1,4 h 2 l 6,11 3,3 v 2 l 4,2 3,3 v 2 l 4,2 5,5 4,1 v 4 l 6,2 11,5 25,6 7,1 h 29 l 29,-5 8,-3 2,-5 h 1 l 3,9 v 6 l -3,1 -14,1 -15,3 -14,2 h -29 l -8,-2 -13,-2 -14,-4 -16,-8 -10,-8 -17,-17 -6,-7 -2,-5 -3,-8 -5,-22 z"
     fill="#f3f3f9"
     id="path106" />
  <path
     d="m 962,518 h 17 l 4,2 v 9 l -9,44 -3,16 -2,9 -3,-4 -10,-29 -12,-25 -8,-12 -3,-3 v -2 l 19,-3 z"
     fill="#263155"
     id="path108" />
  <path
     d="m 1050,140 h 11 l 14,2 16,5 9,4 6,3 16,10 13,12 11,11 8,10 10,15 9,18 6,16 6,25 3,15 v 32 h -1 l -2,-21 -3,-4 -4,-19 -8,-27 -8,-19 -11,-18 -8,-10 -11,-13 -7,-7 -11,-9 -8,-6 -17,-9 -8,-3 -12,-5 -19,-5 -6,-1 v -1 z"
     fill="#283258"
     id="path114" />
  <path
     d="m 1129,611 8,1 9,3 -3,1 2,4 5,5 5,6 8,8 3,5 4,4 9,11 5,5 3,2 -1,5 -8,7 -11,9 -28,24 -8,6 -4,4 -11,9 -2,5 1,3 -1,1 h -71 l 2,-2 h 60 l -4,-7 2,-4 11,-8 17,-14 14,-11 13,-11 13,-10 2,-4 -6,-8 -12,-14 -9,-11 -10,-13 -6,-8 -2,-2 z"
     fill="#c8cbdd"
     id="path116" />
  <path
     d="m 403,684 h 20 l -1,2 -12,6 -7,8 h -2 l -1,4 -3,6 h -2 l -3,9 h -2 l -2,7 h -2 l -2,5 -3,4 -8,2 h -7 l -2,-1 -3,9 -3,7 -1,8 -3,-3 -3,-6 v -2 h -2 l -2,-7 5,2 1,6 h 2 l 7,-17 -1,-4 -2,-3 v -9 l 4,-9 6,-8 5,-4 1,-2 16,-7 z"
     fill="#dedef8"
     id="path118" />
  <path
     d="m 334,513 h 19 l -2,2 -10,5 -8,7 -10,17 -8,14 -3,4 h -3 v 2 l -3,1 h -12 l -3,5 -4,12 -1,10 2,6 v 5 l -2,-4 -3,-5 -4,-2 v -2 l 5,2 -4,-17 v -7 h 1 l 2,10 2,1 6,-17 v -5 l -2,-4 v -8 l 4,-10 5,-5 7,-6 16,-8 z"
     fill="#f4f5fa"
     id="path120" />
  <path
     d="m 1007,909 12,1 5,4 1,4 3,-2 h 6 l 7,5 v 2 l 3,1 2,5 -1,6 -1,2 h -2 l -2,5 -3,3 -8,3 -7,-1 1,-9 -3,-1 -7,3 h -4 l 2,8 6,1 -1,4 -5,2 -9,-4 -8,-12 -2,-2 -1,-8 2,-11 6,-7 5,-1 z"
     fill="#d7d8f7"
     id="path122" />
  <path
     d="m 361,558 4,1 -12,6 -5,5 -7,10 -12,21 -7,8 -15,2 -7,16 -1,9 -2,-4 -2,-3 v -6 l 2,1 7,-14 v -7 l -2,-2 v -12 l 6,-12 8,-7 6,-4 h 2 l 1,-3 13,-3 1,-1 z"
     fill="#f8f9fc"
     id="path126" />
  <path
     d="m 881,641 h 3 l 13,29 11,33 2,7 v 4 l -4,-2 -2,-4 -4,-2 -7,-6 -5,-3 -4,-4 v -2 l -4,-2 -8,-6 v -2 l -4,-2 -7,-5 v -2 l -3,-1 1,-5 6,-8 5,-5 4,-5 5,-5 z"
     fill="#878dd3"
     id="path128" />
  <path
     d="m 223,554 h 18 l 13,4 2,1 v 2 l 4,2 6,8 3,5 1,5 3,2 v 2 l 4,2 2,3 -4,-2 -6,-4 -4,1 -6,4 -8,1 -14,-7 -17,-10 -11,-4 -5,-1 h -13 l 4,-3 8,-5 16,-5 z"
     fill="#eff0f9"
     id="path130" />
  <path
     d="m 365,617 2,1 -3,5 -5,17 v 6 h 2 l -1,3 -10,5 -7,7 -5,8 v 16 l 1,-11 4,-9 5,-5 6,-5 3,-3 4,2 -4,10 -3,3 -4,7 h -2 l -2,5 -5,10 -1,3 -2,1 -4,16 -5,-1 -4,-8 -3,-8 -5,-10 -1,-9 8,-19 11,1 7,-3 3,-3 1,-3 h 2 l 1,-4 9,-17 z"
     fill="#fafafc"
     id="path132" />
  <path
     d="m 234,606 h 22 l 11,3 5,5 4,2 5,8 v 2 h 2 l 2,8 1,2 h -5 l -2,4 -6,3 h -8 l -9,-5 -16,-12 -12,-6 -12,-3 -9,1 3,-3 11,-6 z"
     fill="#ebecf7"
     id="path134" />
  <path
     d="m 380,330 h 22 l 14,7 1,3 4,2 8,10 3,6 1,6 v 17 l -6,12 -9,10 h -2 l -1,3 -5,1 v 2 l -2,1 h -6 v 2 h -11 l 5,-4 6,-1 v -2 l 10,-4 8,-7 8,-17 v -13 l -4,-9 -6,-8 -7,-6 -8,-4 -6,-2 h -13 l -12,4 -9,6 -9,9 -7,11 -2,5 v 19 l 4,10 9,10 9,6 8,4 1,1 15,3 2,1 v 2 h 2 v 2 h -16 l -15,-5 -8,-6 -6,-5 -8,-13 -2,-3 -2,-7 v -15 l 4,-11 6,-11 10,-11 10,-6 z"
     fill="#c8c9f0"
     id="path136" />
  <path
     d="m 984,478 h 13 l 10,5 6,6 1,4 v 13 l -5,8 -7,4 -4,1 h -11 l -9,-5 -5,-4 -3,-7 v -8 l 5,-10 7,-6 z"
     fill="#494f92"
     id="path138" />
  <path
     d="m 312,746 h 9 l 9,4 7,6 2,5 9,2 1,2 h -9 l -1,6 -4,4 -4,1 h -18 l -11,-3 -8,-1 h -21 l -6,4 -3,-1 6,-5 5,-5 11,-8 h 2 v -2 l 5,-3 8,-1 v -2 z"
     fill="#f8f8fb"
     id="path140" />
  <path
     d="m 819,341 h 1 l -1,79 -5,-3 -8,-7 -11,-16 -2,-5 v -15 l 4,-11 8,-11 9,-8 z"
     fill="#797dd3"
     id="path142" />
  <path
     d="m 938,154 4,1 -16,8 -10,6 -3,1 v 2 l -10,8 -5,5 h -2 l -2,4 -6,5 -9,11 -9,13 -8,16 -7,18 -6,20 -4,20 -4,5 h -2 l -1,-3 v -14 l 3,-17 3,-12 6,-16 8,-16 10,-16 9,-11 10,-10 10,-8 15,-10 15,-6 z"
     fill="#29345a"
     id="path144" />
  <path
     d="m 387,641 13,1 -4,3 -5,2 -7,8 -6,5 -4,5 -1,4 h -2 l -3,9 -3,2 -1,4 -6,7 -1,3 -18,1 v 5 l -4,10 -1,5 7,13 6,12 -1,2 -5,-7 -23,-8 3,-1 10,3 h 7 l -7,-14 -2,-7 5,1 1,-9 3,-8 h 2 l 1,-6 7,-12 h 2 l 5,-10 h 2 l 1,-5 2,-5 -5,-1 -1,3 -7,6 -2,3 h -2 l -1,4 -2,5 -1,13 -2,-2 v -16 l 7,-10 7,-7 14,-6 14,-4 z"
     fill="#e2e2f9"
     id="path146" />
  <path
     d="m 1209,339 5,2 10,9 8,14 4,11 v 9 l -6,15 -9,12 -8,5 h -2 v 10 h -1 z"
     fill="#797dd3"
     id="path148" />
  <path
     d="m 286,710 h 10 l 7,2 1,3 6,2 5,6 3,3 h -3 v 6 l -4,6 -4,2 h -15 l -25,-6 h -10 l -5,2 -7,2 -6,2 2,-4 9,-7 7,-6 h 2 l 1,-3 8,-3 8,-4 z"
     fill="#f6f6fb"
     id="path150" />
  <path
     d="m 226,480 6,1 10,4 17,7 v 2 l 5,2 11,10 6,12 v 11 l -2,6 -2,1 1,11 1,15 h -1 l -3,-19 -1,-2 -10,-1 -6,-4 -5,-8 -9,-26 -5,-10 -3,-4 v -2 l -10,-5 z"
     fill="#f6f6fb"
     id="path152" />
  <path
     d="m 1480,1107 16,3 7,-1 35,-2 8,9 1,5 h -117 l 4,-3 3,-8 1,-1 7,-1 z"
     fill="#ebebf7"
     id="path154" />
  <path
     d="m 1482,829 h 14 l 12,5 7,8 2,5 v 9 l -2,8 -4,7 -3,1 -1,-3 3,-7 v -14 l -4,-6 -6,-4 -3,-1 h -14 l -8,3 -7,6 -4,8 -1,14 3,9 12,21 10,19 7,20 1,6 v 12 l -1,6 h -1 l -3,-20 -7,-16 -12,-21 -9,-15 -7,-14 -2,-7 v -12 l 3,-9 7,-9 9,-6 z"
     fill="#fdfdfd"
     id="path156" />
  <path
     d="m 793,389 2,3 7,11 8,10 8,6 2,1 1,17 8,16 7,6 v 3 l 20,1 -1,14 -3,18 3,1 -2,1 -2,-1 -1,-3 -5,-2 -5,-6 -10,-10 -6,-8 -2,-6 h -2 l -4,-9 -3,-12 -1,-11 -9,-8 -8,-14 -3,-7 z"
     fill="#d8d9f7"
     id="path158" />
  <path
     d="m 1669,1024 4,5 4,6 v 2 h 2 l 1,22 3,22 -29,9 -4,-1 v -15 l 4,-11 6,-12 4,-11 4,-14 z"
     fill="#fbfbfc"
     id="path160" />
  <path
     d="m 485,1087 h 30 l 3,6 v 5 l 7,9 4,3 v 2 l 3,1 v 2 l 2,1 h -47 l -6,-5 -3,-7 v -9 z"
     fill="#f9f9fb"
     id="path162" />
  <path
     d="m 395,1079 h 5 l 1,1 1,42 h 8 v -42 l 5,-1 1,1 1,43 40,1 -1,3 -5,1 -4,1 -2,2 v -2 l -5,2 h -8 v 2 h -15 l -16,-2 -7,-1 -5,-1 -24,-1 -8,-1 -3,-1 h -6 l -3,1 -4,-1 v 1 l -11,-1 -2,-2 h 67 z"
     fill="#c5cdec"
     id="path166" />
  <path
     d="m 1576,1026 h 5 l 10,6 5,6 2,4 v 14 l -3,8 -6,7 -10,7 -10,4 h -6 l 1,-6 7,-20 z"
     fill="#d8d9f8"
     id="path170" />
  <path
     d="m 1167,621 7,1 10,4 13,4 16,7 14,8 13,8 14,9 v 2 l 4,1 v 2 l 5,2 8,8 8,14 4,13 3,19 v 12 l 1,-1 1,-6 2,1 v 8 h 14 v 1 l -20,1 -5,-1 -1,-18 -4,-19 -5,-12 -9,-11 -11,-9 -10,-7 -14,-9 -18,-11 -6,-3 -17,-9 -17,-7 z"
     fill="#e1e1f8"
     id="path172" />
  <path
     d="m 1720,1066 4,2 7,6 16,9 10,4 h 6 l 4,-2 h 27 v 2 h 6 l 7,5 2,5 -1,7 -5,5 -4,2 h -15 l -9,-2 -9,-5 -5,-4 v -2 h -2 v -3 h -2 v -2 l -2,-1 v -3 l -5,-1 -16,-9 -9,-6 v -2 l -4,-2 z"
     fill="#f8f9fc"
     id="path174" />
  <path
     d="m 1000,155 h 14 l 15,1 6,2 -1,2 h -28 l -15,1 -16,4 -24,8 -16,8 -4,1 v 2 h -3 v 2 l -11,8 -15,14 -7,11 h -2 l -2,6 h -2 l -1,4 -10,19 -5,13 -3,1 1,-6 5,-14 2,-10 h 2 l 2,-7 h 2 l 1,-5 h 2 v -3 h 2 v -3 l 5,-5 9,-11 8,-7 9,-8 4,-3 h 2 v -2 h 3 v -2 h 3 v -2 l 10,-5 7,-3 11,-4 7,-2 14,-3 z"
     fill="#c8cbe2"
     id="path176" />
  <path
     d="m 1755,1045 5,2 15,7 11,3 v -2 l 5,-5 6,-3 14,-1 16,3 8,6 1,4 v 7 l -8,6 -6,1 h -13 l -10,-3 -9,-6 -4,-4 -14,-4 -12,-6 -5,-3 z"
     fill="#f9f9fc"
     id="path178" />
  <path
     d="m 363,606 h 7 l -4,6 -8,10 -10,18 -7,10 -8,4 h -5 l -2,-6 -2,5 -1,-3 -3,-1 1,-2 v -9 l 3,-7 9,-11 7,-5 1,-2 6,-1 v -2 z"
     fill="#f8f8fc"
     id="path180" />
  <path
     d="m 1788,953 6,1 3,4 v 10 l -2,10 -6,9 -6,7 -6,3 -6,2 -8,18 -7,21 h -1 l 1,-9 11,-28 2,-6 h -2 l -3,-6 v -9 l 1,-4 h 2 l 1,-6 1,-2 h 2 l 2,-5 4,-5 h 3 v -2 z"
     fill="#f1f1f9"
     id="path182" />
  <path
     d="m 1683,1082 h 3 l 6,10 12,13 4,4 1,6 v 6 h 2 v 3 h -12 l -7,-8 -9,-7 -14,-5 -11,-1 -6,-11 7,-3 21,-6 z"
     fill="#f9f9fc"
     id="path184" />
  <path
     d="m 952,256 2,1 1,6 -8,20 -12,20 -5,9 -7,10 h -2 l -2,5 h -2 l -1,4 h -2 l -2,4 -13,15 -11,11 h -1 l -2,-19 5,-1 14,-15 7,-7 11,-14 10,-12 8,-13 9,-17 z"
     fill="#e8b0b4"
     id="path186" />
  <path
     d="m 1613,277 24,12 10,6 9,5 17,10 4,2 v 2 l 3,1 v 1 l -22,2 h -23 l -4,-5 -16,-32 z"
     fill="#d8d9f8"
     id="path188" />
  <path
     d="m 1644,1092 h 6 l 7,10 1,7 v 8 l 1,7 -52,-1 v -2 l 6,-5 h 2 v -2 l 8,-7 12,-12 h 5 v -2 z"
     fill="#fbfbfc"
     id="path190" />
  <path
     d="m 858,598 h 3 l 4,13 8,16 2,2 -4,1 -13,4 -38,18 -29,16 -15,10 -8,7 -4,6 -5,16 -4,25 -2,7 h -15 v -1 h 10 v -17 l 2,-4 2,4 1,-15 3,-12 7,-12 4,-5 13,-10 11,-6 16,-8 14,-8 24,-10 14,-7 4,-4 1,-5 -2,-5 -2,-2 -2,-9 z"
     fill="#dedef8"
     id="path192" />
  <path
     d="m 1141,415 2,1 1,12 v 13 l 3,1 -1,2 -4,-1 -12,17 -12,14 -10,10 -13,10 -10,6 -14,6 -5,-1 2,-1 2,-4 12,-8 9,-5 12,-11 9,-9 8,-12 1,-3 h 2 l 1,-4 5,-9 8,-16 z"
     fill="#ebb2b4"
     id="path194" />
  <path
     d="m 820,489 9,1 7,4 10,8 11,6 15,5 8,2 9,1 3,3 -5,1 v 2 l -8,-1 -18,-6 -11,-5 v 38 l -2,-4 -1,-34 -1,2 h -2 l 1,7 -1,1 -1,8 -1,1 h -5 l -8,-7 v -3 h -2 l -4,-5 -2,-6 -2,-5 -2,-6 3,-3 z"
     fill="#c5c6ee"
     id="path196" />
  <path
     d="m 332,787 h 15 l 7,2 6,5 1,4 -20,-1 -11,-3 v 3 l 19,1 1,1 10,1 3,2 -1,5 -2,4 h -2 v 2 h -10 l -25,-5 -19,-2 1,-4 8,-5 h 2 v -2 l 13,-7 z"
     fill="#f8f8fc"
     id="path200" />
  <path
     d="m 845,286 1,4 h 17 l 3,4 1,9 v 15 l -4,3 -23,2 -5,2 v -19 l 2,-18 h 1 l 1,9 h 2 l 2,-4 z"
     fill="#4b5195"
     id="path202" />
  <path
     d="m 389,355 h 9 l 3,2 v 2 h 2 v 10 l -5,5 -8,7 -10,7 -5,2 h -8 l -5,-3 -1,-2 v -7 l 3,-6 4,-4 h 2 v -2 l 10,-7 5,-3 z"
     fill="#fcfcfc"
     id="path204" />
  <path
     d="m 968,697 h 2 l 7,11 14,21 5,8 v 2 l -44,-1 3,-9 5,-11 z"
     fill="#878dd3"
     id="path206" />
  <path
     d="m 1575,1016 8,1 13,8 7,6 v 3 h 2 l 2,6 v 16 l -3,9 -8,10 -8,6 -12,6 -16,5 -6,-1 2,-4 5,-3 18,-7 12,-9 5,-8 1,-4 v -14 l -5,-8 -7,-5 -10,-4 z"
     fill="#fcfcfc"
     id="path210" />
  <path
     d="m 425,738 3,1 1,5 -3,9 -6,9 -5,9 -8,10 -7,11 -8,11 -4,2 -5,-6 -2,-4 1,-8 6,-15 h 15 l 5,-5 8,-13 2,-5 h 2 l 2,-7 h 2 z"
     fill="#e5e5fa"
     id="path212" />
  <path
     d="m 381,603 1,2 -4,2 h -3 l -1,3 -5,4 h -2 l -2,4 -7,9 -9,16 -1,3 h -2 l -1,4 -6,5 -9,1 -6,-2 -3,9 -4,10 1,9 7,14 4,10 -1,2 -7,-10 -8,-4 -8,-5 -4,-1 -1,6 -4,3 -10,1 -9,-2 -6,-3 v -2 l -2,-1 5,1 6,3 5,1 h 7 l 5,-3 1,-7 -12,-3 v -2 l -9,-2 v -1 h 7 v 2 l 6,1 8,2 1,-4 3,5 v 3 l 7,2 11,6 -6,-17 -12,-25 -5,-7 h 3 l -1,-9 h 2 l 4,15 8,19 2,-1 7,-16 h 2 l 1,-5 2,-1 1,6 8,-1 6,-4 11,-19 7,-11 9,-11 -11,1 -11,2 v 2 l -6,1 -1,3 -8,6 -8,10 -2,6 v 10 h -3 v -14 l 7,-11 9,-9 7,-2 v -2 l 12,-4 9,-2 h 14 z"
     fill="#c3c4ee"
     id="path214" />
  <path
     d="m 1167,289 h 9 l 6,2 4,6 1,9 2,-4 v 18 l -30,-1 v -22 l 2,-4 h 2 l 1,-3 z"
     fill="#4b5195"
     id="path216" />
  <path
     d="m 1687,990 6,1 4,8 v 16 l -4,11 -7,9 h -3 v -11 l -2,10 -5,-1 -2,-3 -1,-7 v -9 l 2,-5 2,-8 6,-7 z"
     fill="#f3f4fa"
     id="path218" />
  <path
     d="m 1734,973 h 7 l 3,3 v 18 h -2 l -1,6 -6,9 -4,2 v 2 l -3,1 1,2 -5,1 1,-9 h -2 l -1,3 -4,-2 v -12 l 3,-8 4,-9 z"
     fill="#f7f7fb"
     id="path220" />
  <path
     d="m 1828,1000 h 11 l 6,3 2,2 v 8 l -6,5 -10,5 -7,2 h -12 l -8,-3 v -4 l 22,-5 h 2 v -2 l -17,5 h -7 l 1,-5 11,-7 z"
     fill="#f7f7fb"
     id="path222" />
  <path
     d="m 1685,639 4,2 11,9 3,2 v 2 l 4,2 -2,5 -9,11 -4,5 -3,-1 -5,-5 -14,-11 1,-4 11,-14 z"
     fill="#d8d9f8"
     id="path224" />
  <path
     d="m 881,641 h 3 l 2,5 v 3 l -5,3 -11,15 v 5 l 5,2 8,6 v 2 l 4,2 14,11 3,1 4,7 2,7 v 4 l -4,-2 -2,-4 -4,-2 -7,-6 -5,-3 -4,-4 v -2 l -4,-2 -8,-6 v -2 l -4,-2 -7,-5 v -2 l -3,-1 1,-5 6,-8 5,-5 4,-5 5,-5 z"
     fill="#c8cbdd"
     id="path226" />
  <path
     d="m 972,508 7,6 -3,1 -7,1 -1,2 -20,4 -15,1 9,12 12,23 5,13 v 5 l -3,-4 -5,-11 -4,-10 -1,-3 -2,-1 -2,-4 h -2 l -4,-6 -3,-3 -1,-3 -5,-5 -28,-1 -11,-2 -1,-3 h -5 v -1 l 9,-1 4,-1 2,1 h 29 l 25,-4 4,-1 17,-1 z"
     fill="#c7c9de"
     id="path230" />
  <path
     d="m 1827,999 h 13 l 6,3 3,3 1,9 -4,5 -17,7 -4,1 h -15 l -6,-2 -1,-1 h -8 l -25,12 -13,7 h -2 v 2 l -9,5 -25,15 -19,10 -14,6 2,5 8,10 12,13 4,4 -5,-2 -14,-14 -8,-11 -1,-4 -22,7 -11,3 6,11 -1,2 -8,-12 -6,-1 4,-2 -1,-11 2,-1 2,11 10,-2 22,-7 12,-5 22,-11 15,-9 18,-11 16,-9 15,-8 14,-6 5,-3 h 2 v -5 l 5,-4 1,-2 h 3 v -2 l 9,-4 z m 1,2 -12,4 -11,7 -1,5 h 7 l 17,-5 v 2 l -16,3 -8,2 v 4 l 8,3 h 12 l 12,-4 7,-4 4,-4 v -8 l -5,-4 -3,-1 z"
     fill="#7c81d3"
     id="path234" />
  <path
     d="m 1050,140 h 11 l 14,2 16,5 9,4 6,3 16,10 6,5 2,4 13,13 3,6 -1,5 -6,-4 -7,-8 -13,-13 -9,-6 v -2 l -5,-2 -12,-7 -10,-1 -9,-4 -19,-6 -11,-2 v -1 z"
     fill="#464c8d"
     id="path236" />
  <path
     d="m 792,377 h 1 v 23 l 11,22 h -2 l -1,4 -2,-3 -3,-2 v -2 l -6,-1 -1,-2 -23,-11 -14,-6 -9,-5 v -1 h 20 l 21,2 6,1 1,-3 z"
     fill="#e5e5fa"
     id="path238" />
  <path
     d="m 1536,1107 4,2 6,7 1,5 h -58 l -3,-2 12,-9 5,-1 z"
     fill="#fdfdfd"
     id="path240" />
  <path
     d="m 341,694 h 12 l -1,9 -1,41 -4,-2 -5,-9 -2,-5 -7,-13 1,-5 4,-10 1,-5 z"
     fill="#fafafc"
     id="path244" />
  <path
     d="m 1530,1068 h 3 1 l 1,6 -2,4 -5,1 -5,4 -4,2 1,3 -8,7 -5,5 -5,4 h -2 l -1,4 -3,2 h -8 l -8,-2 h -24 v -1 l 25,-6 6,-2 12,-1 3,-6 -2,-4 11,-6 3,-1 7,-1 4,-4 1,-5 h 2 z"
     fill="#e6e6fa"
     id="path246" />
  <path
     d="m 977,630 3,1 6,8 12,9 7,3 v 16 h -7 l -13,-5 -8,-5 z"
     fill="#3d43af"
     id="path248" />
  <path
     d="m 1050,143 8,1 16,5 6,2 v 1 h -7 l -3,1 -4,14 4,1 h -2 v 2 l -10,-3 -18,-5 -14,-1 v -1 l 15,-1 2,-5 z"
     fill="#c5c8da"
     id="path252" />
  <path
     d="m 1112,169 8,6 13,12 9,10 v 2 h -2 v 5 l -7,8 -5,-4 -3,-9 -4,-5 -6,-5 v -2 l -4,-2 -1,-1 1,-9 h 2 z"
     fill="#cacddb"
     id="path254" />
  <path
     d="m 361,558 4,1 -12,6 -5,5 -7,10 -12,21 -7,8 -15,2 -7,16 -1,9 -2,-4 -2,-3 v -6 l 2,1 7,-14 v -7 l -2,-2 v -12 l 6,-12 8,-7 6,-4 h 2 l 1,-3 13,-3 1,-1 z m -10,2 -15,2 -12,5 -10,8 -6,8 -4,8 v 7 l 2,4 3,-1 4,-8 v -2 l 3,-1 9,-12 2,-1 -3,5 -5,5 -5,9 -5,6 v 5 h 10 l 6,-3 4,-6 2,-7 h 2 l 7,-14 4,-6 2,-1 v -3 l 4,-1 2,-6 z"
     fill="#b0b3e6"
     id="path256" />
  <path
     d="m 1424,897 6,5 6,8 8,7 15,15 6,12 v 16 l -3,6 h -1 l -2,-13 -4,-10 -11,-14 -13,-14 -6,-10 -2,-4 z"
     fill="#fdfdfd"
     id="path258" />
  <path
     d="m 440,1091 h 6 l 7,5 v 2 h 2 v 10 l -4,5 -4,3 h -10 l -5,-4 -2,-3 v -10 l 3,-5 z"
     fill="#f6f6fa"
     id="path260" />
  <path
     d="m 480,1044 h 8 l 5,3 4,5 v 8 l -3,5 -5,3 h -10 l -6,-4 -1,-2 v -11 l 4,-5 z"
     fill="#f6f6fb"
     id="path262" />
  <path
     d="m 928,183 2,1 -4,4 -10,8 -13,12 -7,11 h -2 l -2,6 h -2 l -1,4 -10,19 -5,13 -3,1 1,-6 5,-14 2,-10 h 2 l 2,-7 h 2 l 1,-5 h 2 v -3 h 2 v -3 l 5,-5 9,-11 8,-7 6,-6 z"
     fill="#d3d4ec"
     id="path264" />
  <path
     d="m 1530,892 h 2 l -5,10 -1,5 v 13 l 7,26 1,13 -3,9 -4,5 h -2 l 2,-9 v -9 l -4,-16 -4,-13 -1,-6 v -10 l 4,-10 6,-7 z"
     fill="#fdfdfd"
     id="path266" />
  <path
     d="m 1074,599 6,1 12,3 -6,18 -3,6 -16,-1 v -7 l 2,-7 1,-11 z"
     fill="#4147b1"
     id="path268" />
  <path
     d="m 1107,167 5,1 1,7 h -2 v 9 l 5,5 6,5 v 2 l 3,1 3,6 v 5 l 3,1 1,3 -4,3 -9,-10 -14,-13 -5,-3 v -2 l -4,-2 v -2 l 5,-5 4,-10 z"
     fill="#e3e4fa"
     id="path270" />
  <path
     d="m 366,804 11,1 7,3 -2,6 -8,11 -7,11 -6,1 -3,-4 3,1 -1,-18 h -9 v -1 l 8,-1 5,-6 z"
     fill="#e5e5fa"
     id="path276" />
  <path
     d="m 336,785 h 15 l 8,3 2,5 3,1 4,6 v 2 h 6 v 2 l 3,1 h -11 l -3,6 -4,4 h -13 l -17,-4 -8,-2 h -20 l -9,4 1,-3 5,-5 8,-6 h 2 l 1,-3 19,-9 z m -4,2 -10,4 -7,4 v 2 l -5,2 -6,4 v 3 l 24,3 20,4 h 10 v -2 h 2 l 3,-5 -1,-5 -2,-1 -10,-1 -1,-1 -19,-1 v -3 l 11,3 20,1 -2,-5 -7,-5 -5,-1 z"
     fill="#a6a9e1"
     id="path278" />
  <path
     d="m 802,422 4,1 7,6 2,15 4,13 3,9 -4,6 -4,-2 -4,-5 -6,-24 -2,-13 z"
     fill="#fcfcfc"
     id="path280" />
  <path
     d="m 793,389 2,3 7,11 8,10 8,6 2,1 v 13 h -3 l 2,12 1,2 -2,4 -5,-16 -2,-7 -8,-7 -8,-14 -3,-7 z"
     fill="#c9ccda"
     id="path282" />
  <path
     d="m 1230,416 v 3 l -6,10 -3,4 -3,7 -4,7 -1,-3 1,-2 h -2 l -2,4 -6,7 -6,4 5,-2 4,-3 2,1 -7,6 -4,2 h -8 l -3,-3 8,-5 2,-3 h 2 v -2 l 5,-5 5,-9 1,-4 6,-3 5,-5 6,-2 1,-3 z"
     fill="#e4e4fa"
     id="path288" />
  <path
     d="m 687,1069 h 20 l 18,1 3,2 -3,2 h 7 v 2 l -21,1 -2,2 -4,1 -5,3 -6,-2 -4,1 -3,-1 z"
     fill="#e6e6fa"
     id="path290" />
  <path
     d="m 312,746 h 9 l 9,4 7,6 2,5 9,2 1,2 h -9 l -1,6 -4,4 -4,1 h -18 l -11,-3 v -1 l 9,1 h 21 l 3,-3 3,-8 h -20 l -15,-1 v -2 h 31 l -1,-3 -7,-4 -6,-2 h -9 l -13,4 -6,3 h -4 v -2 l 5,-3 8,-1 v -2 z"
     fill="#b4b6e7"
     id="path292" />
  <path
     d="m 881,641 h 3 v 7 l -5,4 -6,8 h -2 l -5,10 7,5 8,10 v 2 h 2 v 2 l 4,2 -1,2 -6,-4 -8,-6 v -2 l -4,-2 -7,-5 v -2 l -3,-1 1,-5 6,-8 5,-5 4,-5 5,-5 z"
     fill="#d1d3f4"
     id="path294" />
  <path
     d="m 402,1080 h 8 l 1,42 -1,1 h -8 z"
     fill="#3a40ad"
     id="path296" />
  <path
     d="m 1148,459 4,1 -2,12 -2,4 -2,11 -5,13 -3,10 -4,1 -1,-5 2,-12 8,-26 3,-6 z"
     fill="#dcdcf7"
     id="path298" />
  <path
     d="m 166,686 h 27 l 1,3 h -24 l -13,4 -10,6 -8,8 -7,10 -1,3 h -2 l -1,7 -2,4 -2,15 -4,-1 2,-14 2,-7 6,-12 7,-9 8,-8 11,-6 z"
     fill="#c9caf0"
     id="path302" />
  <path
     d="m 873,627 h 83 l 1,6 -1,-2 h -80 z"
     fill="#484e91"
     id="path304" />
  <path
     d="m 1233,389 3,1 v 9 l -6,12 -8,11 -7,7 -5,1 -1,5 -1,-2 2,-7 1,-10 10,-6 9,-13 z"
     fill="#c5c7e1"
     id="path306" />
  <path
     d="m 310,521 2,1 -3,1 -2,4 -12,12 -2,4 v 14 h 2 l 2,-6 4,-6 h 2 v 3 h -2 l -1,5 -4,5 -1,5 14,-1 v 2 l -3,1 h -12 l -3,5 -4,12 -1,10 2,6 v 5 l -2,-4 -3,-5 -4,-2 v -2 l 5,2 -4,-17 v -7 h 1 l 2,10 2,1 6,-17 v -5 l -2,-4 v -8 l 4,-10 5,-5 7,-6 z"
     fill="#bec0ec"
     id="path310" />
  <path
     d="m 360,659 1,2 -5,9 -7,9 -5,8 -1,4 13,-1 2,-3 h 2 l -2,4 -1,3 -18,1 v 5 l -4,10 -1,5 7,13 6,12 -1,2 -5,-7 -23,-8 3,-1 10,3 h 7 l -7,-14 -2,-7 5,1 1,-9 3,-8 h 2 l 1,-6 7,-12 h 2 l 5,-10 h 2 l 2,-4 z"
     fill="#b4b6e7"
     id="path312" />
  <path
     d="m 403,730 h 2 v 2 l -9,6 -6,8 -3,7 v 13 l 3,-1 1,5 h 11 l 6,-7 5,-9 h 2 l 1,-5 h 2 l -3,9 -8,12 -4,3 h -12 l -3,-1 -6,18 1,7 1,4 -4,-4 -4,-6 -9,-12 v -3 l 3,1 8,12 8,-18 -2,-8 v -12 l 5,-9 5,-6 5,-3 1,-2 z"
     fill="#a8abe2"
     id="path314" />
  <path
     d="m 1662,1105 h 7 l 12,5 11,8 4,5 -1,1 h -15 l -1,-3 -4,-2 -13,-10 z"
     fill="#f9f9fc"
     id="path316" />
  <path
     d="m 1788,953 6,1 3,4 v 10 l -2,10 -6,9 -6,7 -6,3 -6,2 -8,18 -7,21 h -1 l 1,-9 11,-28 2,-6 h -2 l -3,-6 v -9 l 1,-4 h 2 l 1,-6 1,-2 h 2 l 2,-5 4,-5 h 3 v -2 z m 0,1 -8,6 -9,10 -1,4 h -2 l -1,3 v 15 l 5,1 1,3 5,-1 6,-4 3,-4 v -2 h 2 l 6,-12 1,-11 -2,-6 -3,-2 z"
     fill="#7c80d3"
     id="path318" />
  <path
     d="m 878,324 27,1 -6,7 -10,11 -4,-1 -5,-9 -3,-4 v -2 l -3,-1 z"
     fill="#273157"
     id="path320" />
  <path
     d="m 1718,1108 h 10 l 12,5 9,8 v 2 h -10 l -13,-3 -3,-3 -9,-4 v -4 z"
     fill="#f8f9fc"
     id="path322" />
  <path
     d="m 357,652 4,2 -4,10 -3,3 -4,7 h -2 l -2,5 -5,10 -2,3 -1,-5 1,-13 4,-9 5,-5 6,-5 z"
     fill="#f7f7fb"
     id="path324" />
  <path
     d="m 1827,999 h 13 l 6,3 3,3 1,9 -4,5 -17,7 -4,1 h -15 l -12,-4 -2,-3 6,-2 v -5 l 5,-4 1,-2 h 3 v -2 l 9,-4 z m 1,2 -12,4 -11,7 -1,5 h 7 l 17,-5 v 2 l -16,3 -8,2 v 4 l 8,3 h 12 l 12,-4 7,-4 4,-4 v -8 l -5,-4 -3,-1 z"
     fill="#8589d6"
     id="path326" />
  <path
     d="m 1000,482 4,2 5,5 1,4 v 13 l -5,8 h -5 l -2,-5 h 2 v -10 l 1,-1 -2,-1 -2,-12 z"
     fill="#797ed3"
     id="path328" />
  <path
     d="m 385,702 v 3 l -5,5 -4,7 -7,10 -3,8 12,-2 5,-5 8,-13 3,-5 1,2 -3,7 h -2 l -2,7 h -2 l -2,5 -3,4 -8,2 h -7 l -2,-1 -3,9 -3,7 -1,8 -3,-3 -3,-6 v -2 h -2 l -2,-7 5,2 1,6 h 2 l 9,-22 11,-16 h 2 v -3 l 5,-4 z"
     fill="#b4b6e7"
     id="path330" />
  <path
     d="m 1000,155 h 14 l 15,1 6,2 -1,2 h -28 l -15,1 -8,2 -11,1 -3,-2 4,-1 -1,-2 16,-3 z"
     fill="#cacdde"
     id="path332" />
  <path
     d="m 173,700 h 19 v 2 l -17,1 -13,4 -9,7 -6,7 -5,8 -4,20 -4,-1 1,-10 4,-12 6,-10 5,-6 11,-7 z"
     fill="#c9caf0"
     id="path334" />
  <path
     d="m 821,461 3,4 6,9 1,3 4,2 3,3 v 2 l 4,2 5,5 4,1 -1,3 -7,-4 -8,-6 -4,2 2,3 -4,-2 -10,-10 -6,-7 1,-2 4,3 2,-4 z"
     fill="#eaeaf8"
     id="path336" />
  <path
     d="m 526,1034 h 6 v 44 h -6 l -1,-2 z"
     fill="#e9e9f6"
     id="path338" />
  <path
     d="m 313,672 h 2 l 4,12 6,12 4,10 -1,2 -7,-10 -8,-4 -8,-5 -4,-1 -1,6 -4,3 -10,1 -9,-2 -6,-3 v -2 l -2,-1 5,1 6,3 5,1 h 7 l 5,-3 1,-7 -12,-3 v -2 l -9,-2 v -1 h 7 v 2 l 6,1 8,2 1,-4 3,5 v 3 l 7,2 11,6 -6,-17 z"
     fill="#a4a7e1"
     id="path340" />
  <path
     d="m 411,1079 5,1 v 41 l -1,2 -4,-1 -1,-1 v -41 z"
     fill="#f0f1f6"
     id="path342" />
  <path
     d="m 1126,324 23,1 -1,6 -5,10 -1,4 h -2 l -6,-9 -11,-11 z"
     fill="#263156"
     id="path344" />
  <path
     d="m 1432,1089 h 5 l 10,5 7,4 h 11 l 3,1 -1,3 -10,3 h -11 l -5,-3 v -2 l -6,-2 -5,-7 z"
     fill="#fcfcfc"
     id="path346" />
  <path
     d="m 175,974 h 13 l 4,3 v 7 l -5,4 h -11 l -4,-2 v -10 z"
     fill="#f8f8fc"
     id="path348" />
  <path
     d="m 1755,1045 5,2 15,7 11,3 v -2 l 5,-5 6,-3 14,-1 16,3 8,6 1,4 v 7 l -8,6 -6,1 h -13 v -1 l 12,-1 7,-1 v -2 l 6,-2 v -8 l -3,-1 v -2 l -5,-2 -3,-1 v -2 l -7,-1 h -15 l -9,4 -2,5 h 8 l 4,2 -20,-1 -13,-4 -10,-6 -4,-2 z"
     fill="#8489d3"
     id="path350" />
  <path
     d="m 1417,1079 5,5 8,10 5,5 10,6 -2,2 -8,1 v -2 l -7,-2 -6,-5 -4,-8 -1,-5 z"
     fill="#c5c6ef"
     id="path352" />
  <path
     d="m 177,713 h 16 l 3,1 v 2 l -17,1 -8,2 -6,4 -7,7 -5,11 -2,12 -4,-1 1,-11 4,-9 6,-9 7,-6 z"
     fill="#cacbf1"
     id="path354" />
  <path
     d="m 197,564 6,1 12,3 19,10 12,7 6,2 h 6 l 5,-3 -1,-5 -16,-8 -11,-4 v -2 l 9,2 16,8 6,4 7,4 v 2 l 4,2 2,3 -4,-2 -6,-4 -4,1 -6,4 -8,1 -14,-7 -17,-10 -11,-4 -5,-1 h -13 l 4,-3 z"
     fill="#767bcf"
     id="path356" />
  <path
     d="m 1500,1089 3,4 -4,6 -12,1 -6,2 -25,6 -16,1 4,-4 -2,-2 4,1 h 11 l 12,-2 23,-9 z"
     fill="#d8d9f8"
     id="path358" />
  <path
     d="m 846,503 6,2 5,3 15,5 8,2 9,1 3,3 -5,1 v 2 l -8,-1 -18,-6 -11,-5 v 38 h -1 v -40 z"
     fill="#b6b9d9"
     id="path360" />
  <path
     d="m 1109,181 4,5 5,5 4,3 v 2 l 3,1 3,6 v 5 l 3,1 1,3 -4,3 -9,-10 -14,-13 -5,-3 1,-2 h 5 v 2 l 4,1 6,4 5,6 3,3 -2,-5 -2,-4 -6,-3 v -2 l -5,-1 z"
     fill="#dfdff2"
     id="path362" />
  <path
     d="m 1109,638 h 2 l -2,5 -2,2 -2,5 -6,10 -7,10 -9,14 -4,7 -3,4 h -2 l -1,6 -4,5 h -2 l -1,5 -4,5 -3,1 2,-5 21,-32 14,-22 z"
     fill="#7b7fd3"
     id="path366" />
  <path
     d="m 396,1080 h 5 v 43 h -5 z"
     fill="#f8f8fb"
     id="path368" />
  <path
     d="m 1794,1087 h 6 l 7,5 2,5 -1,7 -5,5 -4,2 h -15 l -9,-2 -9,-5 -5,-4 v -2 h -2 l 1,-3 3,4 15,7 4,1 h 16 l 6,-4 v -8 l -5,-4 -2,-1 v -2 z"
     fill="#c8c9f0"
     id="path370" />
  <path
     d="m 314,1107 h 1 v 15 h -22 v -5 l 4,-3 7,-2 h 10 z"
     fill="#f6f6fb"
     id="path374" />
  <path
     d="m 932,526 5,2 9,14 11,23 2,6 v 5 l -3,-4 -5,-11 -4,-10 -1,-3 -2,-1 -2,-4 h -2 l -4,-6 -3,-3 -1,-3 -2,-1 z"
     fill="#ced0ee"
     id="path376" />
  <path
     d="m 1050,140 h 11 l 14,2 7,2 v 6 l 6,2 -3,2 -5,-2 -18,-6 -18,-4 v -1 z"
     fill="#454b8e"
     id="path378" />
  <path
     d="m 356,668 h 2 v 10 l -3,12 -1,1 h -11 l 1,-6 7,-10 z"
     fill="#fbfbfc"
     id="path380" />
  <path
     d="m 1727,975 1,3 -4,5 -5,14 v 12 l 3,1 1,-2 h 2 v 7 l -3,14 -2,21 -2,4 -1,-3 3,-26 1,-4 v -8 l -5,-3 v -16 l 3,-9 h 2 l 2,-6 z"
     fill="#b6b8e9"
     id="path384" />
  <path
     d="m 1509,862 1,3 -2,6 h 3 l 2,-5 2,-2 2,6 -2,3 -5,1 -4,4 -4,1 h -12 l -5,-3 v -3 h 14 l 7,-5 z"
     fill="#eaeaf8"
     id="path386" />
  <path
     d="m 928,183 2,1 -4,4 -10,8 -13,12 -3,4 -5,2 2,-6 9,-8 4,-5 3,-5 5,-5 z"
     fill="#d3d4ed"
     id="path388" />
  <path
     d="m 1481,920 3,3 7,15 2,7 2,10 1,-11 h 1 v 13 l -3,10 -4,2 2,-13 -2,-3 -4,-9 -1,-10 -4,-12 z"
     fill="#e6e6fa"
     id="path390" />
  <path
     d="m 511,1034 5,1 v 39 l -4,1 z"
     fill="#fdfdfd"
     id="path398" />
  <path
     d="m 876,238 h 2 l -1,6 -6,18 3,-1 -2,8 -2,-2 -3,9 -3,12 -1,2 h -12 v -1 h 11 l 1,-11 6,-22 z"
     fill="#cacce3"
     id="path400" />
  <path
     d="m 1687,988 5,1 4,4 1,5 h 2 l 1,2 v 13 l -6,15 -4,6 -4,1 7,-11 3,-9 v -16 l -3,-6 v -2 h -6 l -3,1 -2,5 -4,2 -3,9 -2,2 1,-6 5,-9 4,-5 z"
     fill="#a6a9e1"
     id="path402" />
  <path
     d="m 312,746 h 9 l 9,4 7,6 2,5 h -6 l -2,-2 h 3 l -1,-3 -7,-4 -6,-2 h -9 l -13,4 -6,3 h -4 v -2 l 5,-3 8,-1 v -2 z"
     fill="#c4c5ee"
     id="path404" />
  <path
     d="m 394,743 5,1 -2,4 -2,9 -3,5 h -2 l -1,4 h -3 v -13 l 3,-6 h 2 v -2 z"
     fill="#e8e8f7"
     id="path406" />
  <path
     d="m 337,908 7,1 2,3 v 12 h -7 l -4,-4 v -10 z"
     fill="#f9f9fc"
     id="path408" />
  <path
     d="m 500,1096 h 12 l 1,1 v 11 h -4 l -1,-2 -4,1 -5,1 -1,-3 1,-8 z"
     fill="#4349b3"
     id="path410" />
  <path
     d="m 186,728 h 8 l 2,3 -16,2 -6,4 -4,4 -3,9 -1,5 h -4 l 1,-6 3,-9 8,-9 5,-2 z"
     fill="#c9caf1"
     id="path412" />
  <path
     d="m 259,620 8,2 5,3 v 2 l 7,1 -2,-8 4,4 v 2 h 2 l 2,8 1,2 h -5 l -2,4 -6,3 h -8 l -9,-5 -1,-2 5,1 4,3 8,1 7,-4 v -5 l -17,-8 v -2 l -3,-1 z"
     fill="#898dd7"
     id="path414" />
  <path
     d="m 365,646 4,1 -10,4 -4,2 -1,3 -7,6 -2,3 h -2 l -1,4 -2,5 -1,13 -2,-2 v -16 l 7,-10 7,-7 z"
     fill="#b7b9e9"
     id="path416" />
  <path
     d="m 294,561 1,2 14,-1 v 2 l -3,1 h -12 l -3,5 -4,12 -1,10 2,6 v 5 l -2,-4 -3,-5 -4,-2 v -2 l 5,2 -4,-17 v -7 h 1 l 2,10 2,1 6,-17 2,1 z"
     fill="#c1c2ed"
     id="path418" />
  <path
     d="m 465,1124 h 63 l -4,2 h -34 v 1 l -16,2 h -10 l -3,-2 4,-2 z"
     fill="#c4cdee"
     id="path422" />
  <path
     d="m 1683,1022 1,4 -1,9 3,1 -4,1 v 18 l 2,22 -2,-1 -3,-17 v -22 h -2 l -6,-10 1,-2 5,8 4,1 1,-10 z"
     fill="#9195da"
     id="path424" />
  <path
     d="m 1347,1110 h 1 v 8 l 51,2 v 1 l -36,1 -12,1 h -33 v -1 h 29 z"
     fill="#e4e4fa"
     id="path426" />
  <path
     d="m 864,319 4,5 3,17 1,13 v 45 l -1,24 h -1 v -62 l -1,-19 -3,-15 -3,-5 z"
     fill="#7d82d3"
     id="path428" />
  <path
     d="m 226,480 6,1 10,4 2,2 h -5 l 8,16 8,23 4,8 4,3 6,2 v 1 l -7,-1 -6,-5 -5,-12 -7,-20 -5,-10 -3,-4 v -2 l -10,-5 z"
     fill="#7c80d2"
     id="path430" />
  <path
     d="m 371,705 h 3 v 6 l -4,10 -6,9 -2,-3 v -9 l 2,-4 h 2 l 2,-5 z"
     fill="#ebebf7"
     id="path432" />
  <path
     d="m 325,788 3,1 -11,6 h -2 v 2 l -10,6 -1,3 19,1 9,2 v 1 l -11,-1 h -20 l -9,4 1,-3 5,-5 8,-6 h 2 l 1,-3 z"
     fill="#a2a6e0"
     id="path436" />
  <path
     d="m 1827,999 h 13 l 6,3 3,3 1,9 -4,5 -2,-1 v -3 l 3,-1 -1,-8 -4,-3 -3,-1 h -11 l -12,4 -9,6 -2,-1 3,-4 h 3 v -2 l 9,-4 z"
     fill="#bdc0eb"
     id="path440" />
  <path
     d="m 344,609 2,1 1,2 -6,1 -1,3 -8,6 -8,10 -2,6 v 10 h -3 v -14 l 7,-11 9,-9 7,-2 v -2 z"
     fill="#bebfec"
     id="path442" />
  <path
     d="m 286,710 h 10 l 7,2 1,3 2,1 -6,-1 v -2 l -5,-1 h -7 l -13,4 -5,1 v 2 l -8,5 -5,2 -7,6 -2,4 -7,4 h -2 l 2,-4 9,-7 7,-6 h 2 l 1,-3 8,-3 8,-4 z"
     fill="#989cdd"
     id="path444" />
  <path
     d="m 1814,1057 2,1 -1,3 -20,1 -3,1 15,7 14,1 v 1 h -17 l -12,-6 -5,-4 -1,-3 h 12 v -1 z"
     fill="#c3c4ee"
     id="path446" />
  <path
     d="m 1073,151 7,2 v 2 h -2 l -2,5 -4,8 -6,-1 1,-8 3,-7 z"
     fill="#e4e4fa"
     id="path450" />
  <path
     d="m 348,513 h 5 l -2,2 -10,5 -8,7 -10,17 -8,14 -3,4 -3,-1 3,-5 h 2 v -3 h 2 l 1,-4 6,-12 h 2 l 1,-5 2,-3 h 2 v -3 l 14,-11 z"
     fill="#9b9ede"
     id="path452" />
  <path
     d="m 1785,954 3,1 -8,6 -8,9 -2,4 h -2 v 18 l 3,2 -2,4 v -3 h -2 l -3,-6 v -9 l 1,-4 h 2 l 1,-6 1,-2 h 2 l 2,-5 4,-5 h 3 v -2 z"
     fill="#9fa3dd"
     id="path454" />
  <path
     d="m 306,716 5,2 4,5 3,3 h -3 v 6 l -3,3 -1,-9 -28,-4 -1,-2 28,1 -4,-3 z"
     fill="#a2a5e0"
     id="path456" />
  <path
     d="m 334,703 h 2 l -1,7 -1,5 7,13 6,12 -1,2 -5,-7 -23,-8 3,-1 10,3 h 7 l -7,-14 -2,-7 5,1 z"
     fill="#9a9edd"
     id="path458" />
  <path
     d="m 378,693 h 2 l -2,4 -8,7 -7,14 v 12 l -4,-4 v -9 l 4,-9 6,-8 5,-4 1,-2 z"
     fill="#c1c3ed"
     id="path462" />
  <path
     d="m 396,346 5,2 4,4 2,6 v 9 l -5,7 h -3 l 2,-5 h 2 l -2,-13 -4,-4 -3,-5 z"
     fill="#c5c7ef"
     id="path464" />
  <path
     d="m 1081,146 9,3 14,7 6,4 v 3 h 2 v 2 l -5,-2 -14,-8 -13,-5 z"
     fill="#7276ca"
     id="path466" />
  <path
     d="m 362,801 8,1 h 4 v 2 l 3,1 h -11 l -3,6 -4,4 h -13 l -17,-4 3,-2 16,3 10,1 v -2 h 2 l 1,-4 1,-5 z"
     fill="#bdbfeb"
     id="path468" />
  <path
     d="m 865,670 8,5 8,10 v 2 h 2 v 2 l 4,2 -1,2 -6,-4 -8,-6 v -2 l -4,-2 -7,-5 z"
     fill="#d2d3f1"
     id="path470" />
  <path
     d="m 263,665 h 19 l 7,3 -2,1 -7,-2 h -15 l -19,5 -9,3 v 2 l 12,2 2,2 -8,-1 -9,-1 -9,2 3,-3 19,-9 z"
     fill="#797dd0"
     id="path472" />
  <path
     d="m 416,1052 h 11 l 2,7 -1,4 -5,-1 -1,-8 h -2 l -1,8 -4,1 v -10 z"
     fill="#7a7fd3"
     id="path478" />
  <path
     d="m 1648,1078 h 1 l 2,11 10,-2 19,-6 3,1 -3,2 -27,8 6,11 -1,2 -8,-12 -6,-1 4,-2 -1,-11 z"
     fill="#8186d3"
     id="path480" />
  <path
     d="m 381,603 1,2 -4,2 h -3 l -1,3 -5,4 -4,1 v -3 l 4,-5 -11,1 -13,3 3,-3 15,-4 h 14 z"
     fill="#a2a5e0"
     id="path484" />
  <path
     d="m 361,558 4,1 -16,8 2,-6 -15,2 -12,5 h -3 l 1,-2 h 2 l 1,-3 13,-3 1,-1 z"
     fill="#a5a8e1"
     id="path486" />
  <path
     d="m 972,508 7,6 -3,1 -7,1 -1,2 -14,2 1,-2 h 6 l -4,-1 -7,-1 1,-2 4,-1 17,-1 z"
     fill="#c5c8de"
     id="path488" />
  <path
     d="m 1066,621 h 1 v 5 h 14 l 1,3 -3,4 -17,-2 z"
     fill="#797dd3"
     id="path490" />
  <path
     d="m 197,564 6,1 12,3 19,10 13,8 -3,1 -24,-14 -11,-4 -5,-1 h -13 l 4,-3 z"
     fill="#7a7fd3"
     id="path492" />
  <path
     d="m 244,487 5,1 10,4 v 2 l 5,2 11,10 6,12 v 11 l -2,2 -1,-14 -5,-10 -10,-9 -16,-8 -3,-1 z"
     fill="#8e92d8"
     id="path494" />
  <path
     d="m 986,140 h 19 v 1 l -21,2 -16,3 -17,6 -5,2 -4,-1 14,-6 22,-6 z"
     fill="#bdc0de"
     id="path496" />
  <path
     d="m 1632,820 h 2 l 1,5 v 11 l -9,-4 -1,-5 5,-6 z"
     fill="#ebebf7"
     id="path498" />
  <path
     d="m 187,743 5,2 v 11 l -2,1 h -9 l -1,-4 v -3 l 1,-5 3,-1 -1,10 4,-2 1,-4 -2,-4 z"
     fill="#c6c7ef"
     id="path500" />
  <path
     d="m 1720,1066 4,2 7,6 16,9 12,6 7,2 1,2 -7,-1 -10,-4 -16,-9 -9,-6 v -2 l -4,-2 z"
     fill="#7e82d3"
     id="path502" />
  <path
     d="m 1246,664 15,8 8,10 1,3 h -4 l -6,-7 -11,-9 -3,-2 z"
     fill="#e6e6f5"
     id="path504" />
  <path
     d="m 1233,389 3,1 v 9 l -3,2 -3,5 -5,6 -4,2 1,-5 9,-14 z"
     fill="#cacce2"
     id="path506" />
  <path
     d="m 1016,156 h 14 l 6,2 -1,2 h -17 l -21,-2 v -1 z"
     fill="#d3d5e7"
     id="path508" />
  <path
     d="m 836,459 h 24 v 2 h -2 l -2,11 h -1 l 1,-9 h -17 l -3,-1 z"
     fill="#c5c6ef"
     id="path510" />
  <path
     d="m 1322,739 11,1 9,4 3,3 v 22 h -1 v -17 h -2 l -3,-4 -5,-3 v -2 l -6,-1 -6,-2 z"
     fill="#e6e6fb"
     id="path516" />
  <path
     d="m 1711,1113 7,3 v 2 l 9,3 1,3 h -15 l -2,-5 z"
     fill="#f3f3fa"
     id="path518" />
  <path
     d="m 1097,312 h 5 l 15,8 13,11 8,9 h -3 l -14,-14 -14,-8 -5,-3 -5,-2 z"
     fill="#e4bbc5"
     id="path520" />
  <path
     d="m 1109,181 4,5 5,5 4,3 v 2 l 3,1 3,6 v 5 l 3,1 1,3 -4,3 -4,-5 1,-5 -3,-7 -2,-4 -6,-3 v -2 l -5,-1 z"
     fill="#d4d5f5"
     id="path522" />
  <path
     d="m 416,749 h 2 l -3,9 -8,12 -4,3 h -12 l -3,-2 2,-4 1,3 h 11 l 6,-7 5,-9 h 2 z"
     fill="#bec0ec"
     id="path524" />
  <path
     d="m 1660,1112 4,1 2,1 3,5 5,4 -1,1 h -12 l -1,-4 z"
     fill="#f9f9fb"
     id="path526" />
  <path
     d="m 255,732 h 14 l 21,5 h 16 l 6,-2 -1,3 -4,2 h -15 l -25,-6 h -15 z"
     fill="#8c90d8"
     id="path528" />
  <path
     d="m 1006,484 4,2 3,3 1,4 v 13 l -4,4 -1,-7 v -10 z"
     fill="#353e6f"
     id="path530" />
  <path
     d="m 972,159 3,2 -2,2 3,2 -12,4 -5,-1 -4,-2 v -2 l 12,-3 z"
     fill="#c0c2e3"
     id="path532" />
  <path
     d="m 385,702 v 3 l -5,5 -4,7 -7,10 -2,5 h -2 l -1,3 h -1 l 1,-7 11,-16 h 2 v -3 l 5,-4 z"
     fill="#b7b9e8"
     id="path534" />
  <path
     d="m 347,397 4,4 7,8 9,6 6,3 -1,3 -9,-3 v -2 l -5,-2 -4,-5 -5,-5 -2,-4 z"
     fill="#d9daf8"
     id="path536" />
  <path
     d="m 356,668 h 2 v 10 l -3,12 -2,-2 -2,-9 h -2 l 2,-4 z"
     fill="#eaeaf7"
     id="path540" />
  <path
     d="m 1755,1045 5,2 15,7 7,2 h 6 l 10,2 4,2 -20,-1 -13,-4 -10,-6 -4,-2 z"
     fill="#7e83d3"
     id="path544" />
  <path
     d="m 1125,461 h 2 l -1,4 -12,13 -5,5 -3,-1 3,-5 5,-6 5,-3 z"
     fill="#e8bec7"
     id="path546" />
  <path
     d="m 878,324 27,1 -4,4 h -24 v -2 l -3,-1 z"
     fill="#484e91"
     id="path548" />
  <path
     d="m 854,474 1,3 -3,18 3,1 -2,1 -2,-1 v -14 l -4,3 h -2 l -1,-4 2,-5 7,-1 z"
     fill="#b8bae9"
     id="path552" />
  <path
     d="m 1659,1103 h 10 l 14,5 3,2 -1,3 -13,-6 -10,-2 2,5 2,4 -4,-2 -3,-4 z"
     fill="#b2b4e7"
     id="path556" />
  <path
     d="m 506,1032 h 13 l 5,1 v 1 h -7 v 43 h -5 v -2 l 4,-1 v -39 h -6 v -2 z"
     fill="#ececf7"
     id="path562" />
  <path
     d="m 1150,626 15,1 12,3 -4,2 h -18 z"
     fill="#797dd3"
     id="path564" />
  <path
     d="m 346,567 3,1 -4,6 -8,13 -7,13 h -1 l 1,-7 1,-2 h 2 l 1,-5 9,-15 3,-1 z"
     fill="#c2c3ed"
     id="path566" />
  <path
     d="m 1759,1095 4,4 15,7 5,2 15,1 v 1 h -20 l -12,-6 -5,-4 v -2 h -2 z"
     fill="#a8abe1"
     id="path570" />
  <path
     d="m 529,1031 7,2 -2,2 -1,24 h -1 l -1,-24 h -4 l -1,21 h -1 v -21 h -8 v -1 l 7,-1 z"
     fill="#d0d1f2"
     id="path572" />
  <path
     d="m 884,644 2,2 v 3 l -5,3 -11,15 v 5 l 5,2 1,2 -6,-2 -5,-5 6,-9 5,-5 6,-7 h 2 z"
     fill="#c4c6e9"
     id="path574" />
  <path
     d="m 387,641 13,1 -4,3 -8,4 -5,4 -2,3 -2,-1 5,-6 6,-4 1,-2 -18,3 -4,-1 10,-3 z"
     fill="#979bdc"
     id="path576" />
  <path
     d="m 362,628 2,2 -1,7 v 3 l 3,1 1,5 -6,2 v -2 h -2 l -1,-6 z"
     fill="#eaeaf6"
     id="path578" />
  <path
     d="m 817,431 1,2 h 2 l 5,13 1,5 h -4 l -4,-7 -2,-12 z"
     fill="#dbdcf6"
     id="path580" />
  <path
     d="m 1724,1008 h 1 v 7 l -3,14 -2,21 -2,4 -1,-3 3,-26 1,-4 v -9 l 2,-1 z"
     fill="#8388d3"
     id="path586" />
  <path
     d="m 881,641 h 3 v 7 l -8,5 -3,3 h -2 l 2,-6 2,-4 z"
     fill="#e1e1f2"
     id="path588" />
  <path
     d="m 932,526 5,2 5,7 v 4 l -4,1 -5,-6 -1,-3 -2,-1 z"
     fill="#ddddf1"
     id="path590" />
  <path
     d="m 1646,1078 h 1 l 1,5 v 7 l -2,1 h -8 l 2,-6 4,-5 h 2 z"
     fill="#eaeaf7"
     id="path592" />
  <path
     d="m 1126,324 23,1 -1,3 -21,1 -4,-4 z"
     fill="#484f91"
     id="path594" />
  <path
     d="m 337,766 h 2 v 5 l -4,4 -4,1 h -18 l -11,-3 v -1 l 9,1 h 21 l 3,-3 z"
     fill="#a4a8e0"
     id="path598" />
  <path
     d="m 299,636 h 2 l 4,15 8,19 -1,2 -8,-16 -5,-8 -2,-3 h 3 z"
     fill="#7b80d2"
     id="path600" />
  <path
     d="m 852,576 2,4 h 2 l 4,14 v 4 l -4,-1 -3,-10 -1,-1 z"
     fill="#d3d4f3"
     id="path602" />
  <path
     d="m 271,769 h 24 l 7,2 v 1 h -29 l -6,4 -3,-1 z"
     fill="#8185d3"
     id="path604" />
  <path
     d="m 1442,1103 4,1 h 11 l 9,-1 -1,3 -9,2 -16,1 4,-4 z"
     fill="#dcdcf8"
     id="path606" />
  <path
     d="m 1683,1080 h 4 l 3,6 8,10 12,13 4,4 -5,-2 -14,-14 -8,-11 -1,-4 -4,-1 z"
     fill="#6f73cb"
     id="path608" />
  <path
     d="m 1000,652 21,2 v 1 h -13 l -5,-1 1,14 h -7 l 3,-1 z"
     fill="#7a7ed3"
     id="path610" />
  <path
     d="m 868,298 4,2 v 18 l -2,3 -2,-3 z"
     fill="#e5e5f7"
     id="path612" />
  <path
     d="m 976,514 7,2 4,2 15,1 -2,2 h -16 l -1,-2 -7,-2 -2,1 h -6 l 1,-3 z"
     fill="#ebeaf4"
     id="path614" />
  <path
     d="m 1788,953 6,1 3,4 v 10 l -2,10 -6,9 -6,7 v -3 l 4,-6 h 2 l 1,-4 4,-8 1,-11 -2,-6 -5,-2 z"
     fill="#9a9edd"
     id="path616" />
  <path
     d="m 330,794 11,2 12,1 12,3 5,2 -3,1 -7,-2 -10,-1 -1,-1 -16,-1 -3,-1 z"
     fill="#9ea2dd"
     id="path618" />
  <path
     d="m 950,735 1,2 -1,2 h 46 l 1,-2 v 3 h -53 l -4,-1 v -2 h 8 z"
     fill="#dedef7"
     id="path620" />
  <path
     d="m 1721,1029 h 1 v 12 l -1,19 3,1 -6,2 -1,-3 v -8 l 2,-2 z"
     fill="#d3d4f4"
     id="path622" />
  <path
     d="m 879,240 2,1 -1,5 -6,15 -3,1 1,-6 5,-14 z"
     fill="#f0f1f7"
     id="path624" />
  <path
     d="m 1767,1085 h 27 v 2 h -21 l -7,1 v 3 l -10,-2 -1,-2 h 8 z"
     fill="#a9ade2"
     id="path626" />
  <path
     d="m 343,623 1,4 -10,10 -2,5 -3,5 h -2 l 2,-7 1,-2 h 2 l 2,-4 1,-3 h 2 v -3 l 2,-1 1,-3 z"
     fill="#afb2e5"
     id="path628" />
  <path
     d="m 271,527 h 2 l 2,5 4,-1 v 4 l -2,1 1,11 1,15 h -1 l -4,-23 -3,-8 z"
     fill="#8085d3"
     id="path630" />
  <path
     d="m 876,238 h 2 l -1,6 -6,18 3,-1 -1,5 -4,-3 v -7 z"
     fill="#bdc0e2"
     id="path632" />
  <path
     d="m 403,730 h 2 v 2 l -9,6 -6,8 -4,9 -2,-1 1,-5 6,-10 8,-6 1,-2 z"
     fill="#bcbdea"
     id="path638" />
  <path
     d="m 226,480 6,1 10,4 2,2 h -5 l 6,11 v 2 h -2 l -6,-11 -1,-3 -10,-5 z"
     fill="#8084d2"
     id="path640" />
  <path
     d="m 908,197 h 4 l -2,4 -7,7 -3,4 -5,2 2,-6 9,-8 z"
     fill="#f2f2f8"
     id="path642" />
  <path
     d="m 1085,153 8,1 17,10 1,4 -14,-8 -8,-4 -4,-1 z"
     fill="#384176"
     id="path644" />
  <path
     d="m 433,1074 5,2 8,1 -2,2 h -28 l 3,-2 h 13 z"
     fill="#878dd3"
     id="path646" />
  <path
     d="m 326,647 v 3 l -1,4 -5,11 -4,10 -1,-3 -2,-1 3,-5 6,-13 h 2 l 1,-5 z"
     fill="#b7b9e9"
     id="path648" />
  <path
     d="m 1111,166 9,6 19,19 -1,3 -9,-10 -12,-11 -6,-5 z"
     fill="#283258"
     id="path652" />
  <path
     d="m 325,577 h 2 l -1,4 -5,4 -3,6 -6,9 h -1 v -6 l 7,-8 z"
     fill="#bcbeeb"
     id="path654" />
  <path
     d="m 264,580 7,2 2,1 v 2 l 4,2 2,3 -4,-2 -6,-4 -4,1 -6,4 -8,1 -5,-2 1,-2 11,1 5,-3 z"
     fill="#7e83d3"
     id="path656" />
  <path
     d="m 280,568 h 1 l 2,10 v 4 h 2 l 1,9 2,7 v 5 l -2,-4 -3,-5 -4,-2 v -2 l 5,2 -4,-17 z"
     fill="#777bcf"
     id="path658" />
  <path
     d="m 743,393 h 20 l 13,1 v 1 l -14,1 h -11 l -8,-2 z"
     fill="#ebebf7"
     id="path660" />
  <path
     d="m 1707,1106 h 22 l 4,2 v 1 h -19 l -1,3 -6,-5 z"
     fill="#babcea"
     id="path662" />
  <path
     d="m 1743,1048 m -1,1 m -2,1 h 2 l -2,4 -18,10 -2,2 -4,-1 8,-5 z"
     fill="#7b7fd3"
     id="path664" />
  <path
     d="m 1583,1028 5,2 7,6 1,4 h -5 v -2 l 2,-1 -9,-1 -1,-4 z"
     fill="#e6e6fa"
     id="path666" />
  <path
     d="m 277,677 h 7 v 2 l 6,1 8,2 1,-4 3,5 v 3 l 2,1 -5,-1 -4,-2 -9,-2 v -2 l -9,-2 z"
     fill="#a1a5df"
     id="path668" />
  <path
     d="m 304,610 h 1 l -1,7 -5,14 v 5 l -2,-4 -2,-3 v -6 l 2,1 z"
     fill="#aaade4"
     id="path670" />
  <path
     d="m 1670,989 h 1 l 2,12 2,1 -3,10 -1,7 -2,1 z"
     fill="#e4e5f8"
     id="path672" />
  <path
     d="m 328,1124 h 34 l -1,3 -7,-1 h -6 l -3,1 -4,-1 v 1 l -11,-1 z"
     fill="#c4ccee"
     id="path674" />
  <path
     d="m 358,687 h 2 l -2,4 -1,3 -17,1 2,-7 1,3 13,-1 z"
     fill="#b4b7e8"
     id="path676" />
  <path
     d="m 1457,947 2,2 2,7 1,9 1,3 -4,6 -2,-3 2,-5 -2,-16 z"
     fill="#e7e7f9"
     id="path680" />
  <path
     d="m 1534,888 4,1 -3,9 -2,-1 -4,4 -2,6 h -1 l 1,-7 5,-8 -4,1 4,-4 z"
     fill="#e7e7fa"
     id="path682" />
  <path
     d="m 974,619 2,2 3,10 h -1 l -1,26 2,1 h -3 l -1,-24 z"
     fill="#7e83cf"
     id="path684" />
  <path
     d="m 413,363 5,1 1,5 -6,5 -2,-1 -1,-3 z"
     fill="#c7c8f0"
     id="path686" />
  <path
     d="m 303,748 h 10 l -2,2 -13,4 -6,3 h -4 v -2 l 5,-3 8,-1 v -2 z"
     fill="#b6b9e8"
     id="path690" />
  <path
     d="m 310,521 2,1 -3,1 -2,4 -10,10 h -1 v -5 l 9,-8 z"
     fill="#b5b8e6"
     id="path692" />
  <path
     d="m 1166,682 1,3 -2,4 -8,4 -3,-1 4,-5 z"
     fill="#d3d4f4"
     id="path696" />
  <path
     d="m 362,360 2,2 -1,4 h -2 l -1,4 -5,7 h -1 l 1,-7 4,-7 z"
     fill="#c5c6ef"
     id="path698" />
  <path
     d="m 1095,152 5,2 10,6 v 3 h 2 v 2 l -5,-2 -9,-5 v -3 z"
     fill="#767acf"
     id="path700" />
  <path
     d="m 312,1093 2,1 v 11 l -1,4 -3,3 h -3 l 2,-4 2,-13 z"
     fill="#c4ccee"
     id="path702" />
  <path
     d="m 1833,1056 3,3 v 7 l -8,6 -6,1 h -13 v -1 l 12,-1 7,-1 v -2 l 6,-2 z"
     fill="#999ddd"
     id="path704" />
  <path
     d="m 587,1117 h 1 l 1,5 h 2 l -2,6 -3,1 -2,-3 -6,1 v -2 h -11 v -1 l 19,-1 z"
     fill="#c4ccee"
     id="path710" />
  <path
     d="m 1665,1111 8,6 6,4 -4,1 v 2 l -2,-1 -7,-6 z"
     fill="#c3c5ee"
     id="path712" />
  <path
     d="m 1496,944 h 1 v 13 l -3,10 -4,2 2,-11 1,-5 2,2 z"
     fill="#e9e9f9"
     id="path714" />
  <path
     d="m 431,721 h 2 l -1,6 -6,11 -2,4 h -2 l 1,-5 h 2 l 1,-4 4,-7 v -2 h -7 l 2,-2 z"
     fill="#b8bae9"
     id="path716" />
  <path
     d="m 1081,145 7,1 12,5 5,2 -1,3 -5,-2 -13,-6 -5,-2 z"
     fill="#4d5397"
     id="path718" />
  <path
     d="m 1712,1113 7,1 7,4 v 2 l 11,2 v 1 h -7 l -10,-4 -2,-1 v -2 l -6,-2 z"
     fill="#a8ace1"
     id="path720" />
  <path
     d="m 1699,1010 1,3 -6,15 -4,6 -4,1 7,-11 4,-13 z"
     fill="#c1c3ed"
     id="path722" />
  <path
     d="m 1675,1000 1,4 -2,5 v 13 l -4,-1 1,-14 2,-4 z"
     fill="#c9caf0"
     id="path724" />
  <path
     d="m 332,809 22,4 -2,2 -10,-1 -13,-3 z"
     fill="#bfc0ec"
     id="path726" />
  <path
     d="m 259,722 2,1 -11,9 -2,4 -7,4 h -2 l 2,-4 9,-7 z"
     fill="#8186d4"
     id="path728" />
  <path
     d="m 212,614 8,1 10,3 7,4 -2,1 -10,-4 -12,-2 -6,1 3,-3 z"
     fill="#7a7fd1"
     id="path730" />
  <path
     d="m 1108,195 8,6 14,14 v 2 l -4,-2 -8,-8 -4,-5 -6,-5 z"
     fill="#2a345b"
     id="path732" />
  <path
     d="m 1140,180 4,1 2,2 h 5 l 1,-2 v 5 l -4,4 -8,-8 z"
     fill="#d9daf4"
     id="path736" />
  <path
     d="m 931,178 5,1 -1,3 h -3 v 2 l -12,1 5,-5 z"
     fill="#c6c9ea"
     id="path738" />
  <path
     d="m 1514,864 2,4 v 3 l -1,2 -5,1 -4,4 -4,-1 6,-4 1,-2 h 2 l 2,-5 z"
     fill="#e6e6fa"
     id="path740" />
  <path
     d="m 357,760 h 2 l 4,8 v 2 h 2 l 2,6 h -2 l -4,-6 -12,-4 4,-1 5,1 z"
     fill="#9da1dd"
     id="path742" />
  <path
     d="m 363,614 h 4 l -2,4 -7,9 -3,4 -1,-4 7,-10 z"
     fill="#c8c9f0"
     id="path744" />
  <path
     d="m 369,613 h 2 l -2,9 h -2 l -1,4 -1,2 h -2 v -5 l 3,-6 1,-3 z"
     fill="#ebebf7"
     id="path746" />
  <path
     d="m 1229,399 3,1 -5,9 -5,5 -1,-4 z"
     fill="#d4d6f1"
     id="path748" />
  <path
     d="m 1790,1063 6,2 11,5 14,1 v 1 h -17 l -12,-6 z"
     fill="#bec0eb"
     id="path752" />
  <path
     d="m 1058,717 2,2 -6,9 -3,5 -4,5 -2,-1 12,-19 z"
     fill="#7b7fd3"
     id="path754" />
  <path
     d="m 197,564 6,1 12,3 1,2 -7,-1 -5,-1 h -13 l 4,-3 z"
     fill="#7378cd"
     id="path756" />
  <path
     d="m 1765,976 2,4 1,12 3,2 -2,4 v -3 h -2 l -3,-6 v -9 z"
     fill="#bbbdeb"
     id="path760" />
  <path
     d="m 910,193 v 3 l -9,10 -3,2 -3,5 h -2 l 2,-4 9,-11 z"
     fill="#a9add9"
     id="path762" />
  <path
     d="m 409,1084 h 1 l 1,38 -1,1 h -8 v -1 l 6,-1 z"
     fill="#7a7ed3"
     id="path764" />
  <path
     d="m 416,1052 h 4 l -1,10 -4,1 v -10 z"
     fill="#7277cf"
     id="path766" />
  <path
     d="m 1008,504 2,4 1,3 -2,3 h -5 l -2,-5 5,-3 z"
     fill="#767ace"
     id="path768" />
  <path
     d="m 1741,998 3,1 -7,11 -4,4 -7,1 2,-2 h 3 v -2 l 5,-4 z"
     fill="#bcbeeb"
     id="path770" />
  <path
     d="m 1711,773 h 1 v 11 l -1,2 h 2 l 1,-7 2,-3 -1,8 -3,8 h -2 v -10 z"
     fill="#e3e3f8"
     id="path772" />
  <path
     d="m 892,696 6,3 8,6 -3,1 1,2 -4,-2 -7,-6 z"
     fill="#d7d8f2"
     id="path774" />
  <path
     d="m 269,690 5,1 6,3 14,2 -3,2 -11,-1 -9,-4 v -2 z"
     fill="#a1a5df"
     id="path776" />
  <path
     d="m 844,533 h 4 v 14 l -2,-2 -1,-5 -3,-2 1,-4 z"
     fill="#e6e6fb"
     id="path778" />
  <path
     d="m 420,684 3,1 -13,7 -7,8 -2,-1 1,-3 8,-7 6,-4 z"
     fill="#8589d4"
     id="path780" />
  <path
     d="m 182,743 h 5 l 2,7 -3,4 h -3 l 1,-10 z"
     fill="#eaeafa"
     id="path786" />
  <path
     d="m 388,648 2,1 -15,15 -2,1 v -3 h 2 l 1,-4 1,-2 4,-1 5,-5 z"
     fill="#c6c7ef"
     id="path788" />
  <path
     d="m 1239,399 h 2 l -1,5 h -2 v 3 l -2,1 -1,4 -2,-1 1,-9 z"
     fill="#e5e5fa"
     id="path790" />
  <path
     d="m 870,266 h 1 l -1,8 -3,10 -2,1 1,-9 3,-9 z"
     fill="#e3e4f3"
     id="path792" />
  <path
     d="m 896,175 m -2,1 2,1 -3,5 -3,-1 z m -5,5 m -2,1 2,1 -14,14 v -3 z"
     fill="#3e467f"
     id="path794" />
  <path
     d="m 354,757 4,5 v 4 l -9,-1 -1,-2 5,-3 z"
     fill="#e1e2f5"
     id="path796" />
  <path
     d="m 1794,1087 h 6 l 7,5 v 6 l -1,-3 -4,-2 -5,-3 v -2 z"
     fill="#adb0e4"
     id="path800" />
  <path
     d="m 360,659 1,2 -5,9 -5,4 v -3 l 4,-7 h 2 l 2,-4 z"
     fill="#adb0e4"
     id="path802" />
  <path
     d="m 849,559 2,1 2,9 v 5 h -2 l -2,-3 -1,-11 z"
     fill="#e2e2f9"
     id="path804" />
  <path
     d="m 943,555 5,2 1,10 h -3 l -3,-8 z"
     fill="#d6d7f4"
     id="path806" />
  <path
     d="m 1160,288 1,3 h 2 v 2 h -2 l -1,4 h -2 l -2,5 -2,3 v -6 l 4,-6 z"
     fill="#c4c6e7"
     id="path808" />
  <path
     d="m 881,230 1,3 -1,4 1,-3 3,1 -2,6 -2,2 -2,-2 h -1 v -7 l 1,-2 h 2 z"
     fill="#c8cae8"
     id="path810" />
  <path
     d="m 633,237 5,1 v 6 l -5,1 -1,-1 v -6 z"
     fill="#fdfdfd"
     id="path812" />
  <path
     d="m 1746,977 h 1 v 14 l -3,7 h -2 v -4 h 2 v -15 z"
     fill="#c8c9f0"
     id="path816" />
  <path
     d="m 362,718 1,3 7,-1 -6,10 -2,-3 z"
     fill="#e1e1fa"
     id="path818" />
  <path
     d="m 867,282 1,3 -1,1 -1,7 3,1 2,5 -5,-2 -3,-6 1,-6 z"
     fill="#cbcde8"
     id="path820" />
  <path
     d="m 606,237 4,2 v 5 l -4,1 -3,-1 1,-5 z"
     fill="#fdfdfd"
     id="path822" />
  <path
     d="m 251,558 5,1 v 2 l 4,2 6,8 1,5 -4,-5 -5,-7 -7,-4 z"
     fill="#9397da"
     id="path826" />
  <path
     d="m 301,545 h 2 v 3 h -2 l -1,5 -4,5 -3,6 -1,-2 3,-7 z"
     fill="#9da1de"
     id="path828" />
  <path
     d="m 1097,312 h 5 l 15,8 -4,1 -11,-6 -5,-2 z"
     fill="#dfb6c4"
     id="path830" />
  <path
     d="m 620,237 4,1 v 6 l -5,1 -1,-1 v -5 z"
     fill="#fdfdfd"
     id="path832" />
  <path
     d="m 407,740 v 3 l -9,12 -5,7 -1,-2 12,-17 z"
     fill="#8489d3"
     id="path836" />
  <path
     d="m 1767,1093 h 7 l 9,4 v 1 h -8 l -5,-2 v -2 z"
     fill="#abaee3"
     id="path842" />
  <path
     d="m 367,776 3,1 8,12 -2,2 -9,-12 z"
     fill="#bdbeeb"
     id="path844" />
  <path
     d="m 379,732 4,1 -5,3 -5,1 h -7 l -2,-2 2,-1 12,-1 z"
     fill="#bbbdea"
     id="path846" />
  <path
     d="m 369,669 h 2 l -3,9 -4,1 1,-3 h 2 z m -6,10 2,1 -1,4 -3,3 -1,-3 h 2 z"
     fill="#abafe3"
     id="path848" />
  <path
     d="m 344,609 2,1 1,2 -6,1 -1,3 -5,1 v -3 l 7,-2 v -2 z"
     fill="#b5b8e8"
     id="path850" />
  <path
     d="m 259,505 4,1 3,5 2,9 -3,-4 v -2 h -2 l -4,-7 z"
     fill="#afb1e6"
     id="path852" />
  <path
     d="m 1135,192 5,3 2,4 h -2 v 5 l -2,1 -2,-7 z"
     fill="#d6d7f4"
     id="path854" />
  <path
     d="m 1823,1049 5,1 7,5 -1,2 h -3 v -2 l -5,-2 -3,-1 z"
     fill="#bbbdeb"
     id="path864" />
  <path
     d="m 1733,987 1,2 -7,18 -2,1 1,-6 5,-13 z"
     fill="#8085d3"
     id="path866" />
  <path
     d="m 1721,920 h 9 v 1 l -6,1 2,2 h -8 l -5,-1 1,-2 z"
     fill="#e2e3f8"
     id="path868" />
  <path
     d="m 862,665 2,2 1,5 -4,1 -3,-2 v -4 z"
     fill="#e5e5f5"
     id="path870" />
  <path
     d="m 299,636 h 2 l 2,8 v 6 l -4,-2 -2,-3 h 3 z"
     fill="#9396db"
     id="path872" />
  <path
     d="m 328,598 1,3 -7,8 h -10 v -1 l 7,-2 6,-2 2,-4 z"
     fill="#afb2e5"
     id="path874" />
  <path
     d="m 865,276 1,4 -3,10 h -12 v -1 h 11 l 1,-11 z"
     fill="#bfc2d9"
     id="path876" />
  <path
     d="m 1696,1097 4,1 9,10 5,5 -5,-2 -13,-13 z"
     fill="#7e83d3"
     id="path880" />
  <path
     d="m 1753,1042 4,1 h -2 v 2 l -9,5 -4,2 2,-4 z"
     fill="#7d82d3"
     id="path882" />
  <path
     d="m 1569,1000 5,5 1,9 2,1 h -3 l -5,-13 z"
     fill="#e6e6fa"
     id="path884" />
  <path
     d="m 1785,954 3,1 -8,6 -6,5 2,-4 1,-4 h 3 v -2 z"
     fill="#b7b9e8"
     id="path886" />
  <path
     d="m 347,742 5,2 1,6 3,3 1,7 -3,-3 -3,-6 v -2 h -2 z"
     fill="#9296da"
     id="path888" />
  <path
     d="m 277,620 4,4 v 2 h 2 l 1,8 -2,-1 v -2 l -6,-2 3,-1 z"
     fill="#b3b5e7"
     id="path890" />
  <path
     d="m 259,620 8,2 5,3 v 3 l -6,-2 -4,-2 v -2 l -3,-1 z"
     fill="#b2b5e7"
     id="path892" />
  <path
     d="m 1185,280 h 2 l 1,6 v 10 l -2,-1 -2,-10 z"
     fill="#4d53a7"
     id="path894" />
  <path
     d="m 1129,170 4,1 4,2 1,3 3,3 -2,2 -10,-10 z"
     fill="#bdbfec"
     id="path898" />
  <path
     d="m 1428,1092 4,1 3,4 6,3 1,3 -5,-2 -5,-3 z"
     fill="#dfe0f8"
     id="path902" />
  <path
     d="m 1767,1085 6,1 v 1 l -7,1 v 3 l -10,-2 -1,-2 h 8 z"
     fill="#cdcef2"
     id="path904" />
  <path
     d="m 1847,1006 2,3 1,5 -4,5 -2,-1 v -3 l 3,-1 z"
     fill="#bfc0ec"
     id="path906" />
  <path
     d="m 1786,1059 h 11 l 1,2 -5,2 -6,-1 z"
     fill="#d8d8f4"
     id="path910" />
  <path
     d="m 1769,1033 h 2 l -1,3 -11,6 -3,-1 z"
     fill="#7b7fd3"
     id="path912" />
  <path
     d="m 1800,1018 4,2 v 3 l 5,1 -4,2 -2,-2 -5,-1 -2,-3 z"
     fill="#bec0ec"
     id="path914" />
  <path
     d="m 1635,820 h 1 l 1,18 -4,-1 -3,-3 4,1 z"
     fill="#dddef9"
     id="path916" />
  <path
     d="m 902,705 5,1 v 2 h 2 l 1,6 -4,-2 -4,-6 z"
     fill="#cccee9"
     id="path918" />
  <path
     d="m 894,691 10,5 3,4 v 3 h -2 l -5,-5 z"
     fill="#c1c2ed"
     id="path920" />
  <path
     d="m 336,585 1,2 -7,13 h -1 l 1,-7 1,-2 h 2 l 1,-5 z"
     fill="#babdea"
     id="path922" />
  <path
     d="m 955,516 h 6 v 2 l -7,2 -4,1 -4,-2 3,-2 z"
     fill="#e2e3f4"
     id="path924" />
  <path
     d="m 244,487 5,1 10,4 -4,2 -11,-5 z"
     fill="#b0b2e7"
     id="path926" />
  <path
     d="m 958,163 h 5 l 1,4 2,1 -4,1 -3,-2 -4,-1 v -2 z"
     fill="#b7bbdc"
     id="path928" />
  <path
     d="m 506,1032 h 13 l 5,1 v 1 h -7 l -1,2 -6,-1 v -2 z"
     fill="#e6e6f9"
     id="path930" />
  <path
     d="m 290,769 11,1 1,2 -20,-1 v -1 z"
     fill="#b3b6e7"
     id="path932" />
  <path
     d="m 333,753 5,5 1,3 h -6 l -2,-2 h 3 l -1,-3 -2,-2 z"
     fill="#cdcef2"
     id="path934" />
  <path
     d="m 1113,732 5,2 4,5 h -8 z"
     fill="#dfdff5"
     id="path936" />
  <path
     d="m 308,605 1,2 h 9 l -1,3 -10,1 -2,2 1,-4 z"
     fill="#d1d1f3"
     id="path938" />
  <path
     d="m 325,577 h 2 l -1,4 -5,4 -5,5 2,-4 z"
     fill="#9ca0dc"
     id="path940" />
  <path
     d="m 271,527 h 2 l 2,5 4,-1 v 4 l -3,1 -1,-1 -2,2 -2,-6 z"
     fill="#b9bbea"
     id="path942" />
  <path
     d="m 993,490 4,1 v 2 l -2,2 1,2 -1,4 h -3 v -8 z"
     fill="#797dd3"
     id="path944" />
  <path
     d="m 1657,1104 2,1 3,7 h -2 v 3 h -2 l -1,2 z"
     fill="#d1d2f3"
     id="path946" />
  <path
     d="m 1786,1056 16,3 v 1 l -20,-1 v -2 z"
     fill="#7f84d3"
     id="path948" />
  <path
     d="m 1797,1047 4,1 -3,2 -6,3 -2,4 -4,-2 5,-5 z"
     fill="#b7b9e8"
     id="path950" />
  <path
     d="m 1815,1000 4,1 -11,7 h -3 l 3,-4 h 3 v -2 z"
     fill="#afb2e5"
     id="path952" />
  <path
     d="m 1772,992 1,3 5,-1 4,-1 -2,3 -9,3 -2,2 v -3 l 2,-5 z"
     fill="#7f84d3"
     id="path954" />
  <path
     d="m 280,761 2,1 -6,6 4,2 h -7 l -2,-2 z"
     fill="#bcbeeb"
     id="path956" />
  <path
     d="m 1183,666 4,2 -2,4 -4,1 -1,-3 z"
     fill="#d5d6f5"
     id="path958" />
  <path
     d="m 264,580 7,2 2,1 v 2 l 4,2 2,3 -4,-2 -6,-4 -5,-1 z"
     fill="#a5a8e1"
     id="path960" />
  <path
     d="m 251,571 9,4 6,4 2,3 -5,-2 -8,-5 -4,-2 z"
     fill="#7b80d3"
     id="path962" />
  <path
     d="m 361,558 4,1 -16,8 6,-7 z"
     fill="#8186d3"
     id="path964" />
  <path
     d="m 339,559 h 18 l -5,5 -1,-3 -12,-1 z"
     fill="#cacbf0"
     id="path966" />
  <path
     d="m 316,550 h 2 l -1,5 -5,7 -3,-1 3,-5 h 2 v -3 h 2 z"
     fill="#afb2e5"
     id="path968" />
  <path
     d="m 312,532 2,1 -3,4 -3,5 -3,1 v 2 l -2,-1 8,-11 z"
     fill="#979bdc"
     id="path970" />
  <path
     d="m 1109,181 4,5 5,5 2,3 -6,-3 v -2 l -5,-1 z"
     fill="#d8d9f8"
     id="path974" />
  <path
     d="m 1719,1050 h 1 v 13 h -2 l -1,-3 v -8 z"
     fill="#bec0ec"
     id="path980" />
  <path
     d="m 1754,1034 4,4 2,1 -8,5 -2,-1 3,-5 z"
     fill="#c4c5ee"
     id="path982" />
  <path
     d="m 1837,1000 8,1 4,4 1,6 -2,-2 v -3 l -4,-2 -7,-3 z"
     fill="#a3a6e1"
     id="path984" />
  <path
     d="m 1167,621 7,1 5,3 v 2 l -12,-4 z"
     fill="#dddef8"
     id="path986" />
  <path
     d="m 941,518 h 5 l -6,4 h -8 l 2,-3 z"
     fill="#f0f0f9"
     id="path988" />
  <path
     d="m 1099,159 4,1 7,4 1,4 -12,-7 z"
     fill="#313b69"
     id="path992" />
  <path
     d="m 1100,151 6,1 9,5 -1,3 -9,-6 -5,-2 z"
     fill="#bec0e5"
     id="path994" />
  <path
     d="m 1608,1119 2,1 -3,1 v 2 h 16 v 1 h -19 l 2,-4 z"
     fill="#dedef8"
     id="path998" />
  <path
     d="m 1708,1110 4,3 v 9 l -3,-1 -1,-6 z"
     fill="#c8c9f0"
     id="path1000" />
  <path
     d="m 330,794 11,2 v 2 h -8 l -3,-1 z"
     fill="#b5b7e7"
     id="path1002" />
  <path
     d="m 1006,654 h 1 l 2,7 v 7 h -3 z"
     fill="#8489d3"
     id="path1004" />
  <path
     d="m 1129,611 8,1 v 3 l -4,3 -5,-6 z"
     fill="#c4c8ee"
     id="path1006" />
  <path
     d="m 1759,1095 4,4 8,4 -4,2 -6,-5 v -2 h -2 z"
     fill="#bdbeeb"
     id="path1010" />
  <path
     d="m 1825,1012 h 3 v 2 l -12,3 -4,-1 z"
     fill="#7d81d3"
     id="path1012" />
  <path
     d="m 149,745 h 2 v 8 l -4,-1 v -5 z"
     fill="#d3d4f4"
     id="path1014" />
  <path
     d="m 322,695 4,5 3,6 -1,2 -7,-10 -2,-2 z"
     fill="#7d82d3"
     id="path1016" />
  <path
     d="m 315,692 5,2 1,-2 h 2 l 2,6 -3,-2 -4,1 -5,-4 z"
     fill="#c7c8f0"
     id="path1018" />
  <path
     d="m 256,683 5,1 8,5 -3,1 -10,-5 z"
     fill="#b3b5e6"
     id="path1020" />
  <path
     d="m 276,550 h 1 l 2,9 h 1 v 9 l -3,-4 -1,-6 z"
     fill="#c1c2ec"
     id="path1022" />
  <path
     d="m 976,514 5,1 -3,2 -10,1 1,-3 z"
     fill="#e4e5f7"
     id="path1024" />
  <path
     d="m 855,460 h 5 l -2,1 -2,11 h -1 l 1,-9 h -7 v -1 h 6 z"
     fill="#9fa4df"
     id="path1026" />
  <path
     d="m 1207,452 2,1 -7,6 -4,2 -3,-2 10,-5 z"
     fill="#e6e6fb"
     id="path1028" />
  <path
     d="m 868,298 4,2 v 7 h -3 z"
     fill="#e0e1f0"
     id="path1030" />
  <path
     d="m 1073,151 7,2 v 2 h -2 l -1,3 -4,-4 -3,-2 z"
     fill="#d8d9f8"
     id="path1038" />
  <path
     d="m 1770,1053 9,2 3,1 v 2 l -8,-1 -4,-2 z"
     fill="#7c80d3"
     id="path1040" />
  <path
     d="m 360,794 5,2 3,5 -12,-2 v -1 h 5 z"
     fill="#c7c8f0"
     id="path1042" />
  <path
     d="m 386,643 h 5 l -1,3 -4,3 h -2 l -1,-5 z"
     fill="#e1e2f6"
     id="path1044" />
  <path
     d="m 279,590 7,2 2,6 v 5 l -2,-4 -3,-5 -4,-2 z"
     fill="#8185d5"
     id="path1046" />
  <path
     d="m 334,513 h 14 l -5,4 -2,-1 1,-2 -8,1 z"
     fill="#bec2ec"
     id="path1048" />
  <path
     d="m 1159,454 5,1 9,4 -4,1 -9,-4 z"
     fill="#c5c6ef"
     id="path1050" />
  <path
     d="m 1461,1103 h 5 l -1,3 -9,1 1,-3 z"
     fill="#dddef8"
     id="path1054" />
  <path
     d="m 1645,1081 h 2 l 1,2 v 7 h -5 l 2,-1 z"
     fill="#f4f4fb"
     id="path1056" />
  <path
     d="m 1596,1057 1,3 -6,9 -3,2 5,-10 z"
     fill="#e8e8f9"
     id="path1058" />
  <path
     d="m 1727,975 1,3 -8,10 1,-5 4,-6 z"
     fill="#868cd3"
     id="path1060" />
  <path
     d="m 1534,888 4,1 -5,5 -1,-2 -4,1 4,-4 z"
     fill="#e9e9f8"
     id="path1062" />
  <path
     d="m 322,539 h 2 l -1,5 -4,7 -2,-2 z"
     fill="#b7b9e8"
     id="path1064" />
  <path
     d="m 891,517 6,1 -4,3 -11,-1 v -1 l 9,-1 z"
     fill="#dadbf7"
     id="path1066" />
  <path
     d="m 868,259 h 2 l 1,4 h 1 v 6 l -4,-2 h -1 z"
     fill="#c6c9e3"
     id="path1068" />
</svg>