<svg xmlns="http://www.w3.org/2000/svg" width="400" height="400" id="open-shop"><path fill="#FFBE55" d="m301.688 151.062-9.521 10.168-61.559-57.624L212.09 86.28l-.252-.224a16.95 16.95 0 0 0-11.893-4.819 17.015 17.015 0 0 0-10.498 3.596 14.072 14.072 0 0 0-2.285 2.171l-17.854 16.711-61.471 57.516-9.523-10.168 78.598-73.557.084-.082 3.398-3.176a30.582 30.582 0 0 1 5.764-3.732 31.3 31.3 0 0 1 13.787-3.204c4.959 0 9.664 1.173 13.842 3.262a29.793 29.793 0 0 1 6.797 4.593l1.42 1.338 79.684 74.557z"></path><linearGradient id="a" x1="188.305" x2="188.305" y1="84.833" y2="87.004" gradientUnits="userSpaceOnUse"><stop offset="0" stop-color="#29abe2"></stop><stop offset="1" stop-color="#0071bc"></stop></linearGradient><path fill="url(#a)" d="m189.447 84.833-2.285 2.171a14.072 14.072 0 0 1 2.285-2.171z"></path><path fill="#2A94F4" d="M360.15 164.87v117.22c0 8.29-6.72 15-15 15H54.85c-8.28 0-15-6.71-15-15V164.87c0-8.29 6.72-15 15-15h290.3c8.281 0 15 6.71 15 15z"></path><path fill="#F7F7F7" d="M104.955 230.486v-16.605c0-11.908 6.122-21.972 21.805-21.972s21.804 10.063 21.804 21.972v16.605c0 12.244-7.296 22.056-21.804 22.056-14.509 0-21.805-9.812-21.805-22.056zm11.741-16.605v16.605c0 6.709 3.187 11.405 10.063 11.405s10.063-4.696 10.063-11.405v-16.605c0-6.792-2.684-11.321-10.063-11.321s-10.063 4.529-10.063 11.321zm52.578 17.779v15.347c0 2.936-2.684 5.535-5.871 5.535-3.103 0-5.87-2.516-5.87-5.535v-48.305c0-3.271 3.02-6.038 6.541-6.038h12.328c15.767 0 21.385 9.393 21.385 19.624 0 12.411-8.386 19.372-21.385 19.372h-7.128zm0-10.65h7.128c6.29 0 9.645-2.768 9.645-8.806 0-4.36-1.762-8.89-9.645-8.89h-7.128v17.696zm66.08 30.777H213.13c-4.108 0-7.799-1.426-7.799-5.954v-47.215c0-2.935 2.768-5.954 6.457-5.954h22.728c3.187 0 5.87 2.516 5.87 5.451 0 3.02-2.684 5.199-5.87 5.199h-17.443v13.502h15.85c2.936 0 5.786 2.265 5.786 5.283 0 3.02-2.516 5.367-5.786 5.367h-15.85v13.67h18.281c3.104 0 5.871 2.348 5.871 5.199 0 3.02-2.684 5.452-5.871 5.452zm44.277-2.181-19.456-33.88v31.364c0 2.936-2.768 5.451-5.955 5.451-3.271 0-5.786-2.516-5.786-5.451v-49.479c0-3.271 2.6-5.703 6.122-5.703 2.265 0 4.528 1.258 5.703 3.104 7.463 12.914 11.74 20.546 19.455 34.048v-31.7c0-2.935 2.768-5.451 5.955-5.451 3.271 0 5.786 2.517 5.786 5.451v49.479c0 3.104-2.516 5.703-6.206 5.703-2.18 0-4.528-1.174-5.618-2.936z"></path></svg>