
<svg xmlns="http://www.w3.org/2000/svg" xmlns:xlink="http://www.w3.org/1999/xlink" version="1.1" x="0px" y="0px" viewBox="0 0 100 105" enable-background="new 0 0 100 100" xml:space="preserve">
<path d="M40.512,57.99c-5.588,0-10.351-1.469-13.808-4.325c-3.576-2.956-5.435-7.139-5.375-12.096v-3.981h3v4       c-0.049,4.036,1.433,7.407,4.286,9.766c4.22,3.486,10.919,4.513,18.866,2.89c15.96-3.255,24.652-9.521,24.557-12.608v-4.046h3       v4C75.24,48.16,61.63,54.42,48.081,57.184C45.433,57.723,42.897,57.99,40.512,57.99z" fill="#2362f7"/><path d="M40.547,53.984L40.547,53.984c-6.335,0-11.511-1.85-14.968-5.35c-2.834-2.868-4.303-6.694-4.25-11.066       c-0.053-4.335,1.417-8.162,4.25-11.03c3.457-3.5,8.633-5.35,14.967-5.35c2.389,0,4.924,0.271,7.535,0.805       c13.548,2.763,27.158,9.022,26.956,15.64c0.203,6.525-13.407,12.785-26.956,15.548C45.47,53.715,42.936,53.984,40.547,53.984z        M40.546,24.189c-5.515,0-9.952,1.542-12.833,4.458c-2.258,2.284-3.428,5.37-3.385,8.922c-0.043,3.589,1.127,6.674,3.384,8.958       c2.881,2.917,7.319,4.458,12.834,4.458c2.187,0,4.52-0.25,6.934-0.742c15.961-3.255,24.652-9.521,24.557-12.608       c0.095-3.179-8.596-9.445-24.557-12.7C45.067,24.44,42.734,24.189,40.546,24.189z" fill="#2362f7"/><path fill="#2362f7" d="M27.846,59.811c-0.082,0-0.165-0.007-0.249-0.021c-0.761-0.127-1.302-0.812-1.25-1.581l0.365-5.38       c0.037-0.548,0.371-1.032,0.87-1.263c0.5-0.229,1.084-0.166,1.524,0.162c0.226,0.17,0.469,0.321,0.712,0.478l0.116,0.073       c0.552,0.353,0.812,1.021,0.641,1.654l-1.284,4.768C29.114,59.364,28.513,59.811,27.846,59.811z"/><path fill="#2362f7" d="M69.969,67.962c-0.667,0-1.268-0.446-1.447-1.108L64.02,50.147c-0.184-0.678,0.129-1.392,0.75-1.719       c1.144-0.601,2.185-1.218,3.093-1.835c0.446-0.302,1.018-0.342,1.5-0.107s0.803,0.711,0.84,1.247l1.265,18.628       c0.053,0.77-0.488,1.453-1.25,1.58C70.134,67.955,70.051,67.962,69.969,67.962z M67.225,50.508l0.213,0.792l-0.061-0.879       C67.326,50.45,67.275,50.479,67.225,50.508z"/><path fill="#2362f7" d="M34.04,75.318c-0.082,0-0.165-0.006-0.249-0.021c-0.761-0.127-1.302-0.812-1.25-1.581l1.213-17.853       c0.029-0.433,0.245-0.831,0.59-1.095c0.346-0.261,0.789-0.357,1.211-0.272c0.94,0.194,2.011,0.329,3.271,0.409       c0.449,0.027,0.862,0.258,1.124,0.623c0.262,0.365,0.346,0.83,0.229,1.265L35.487,74.21       C35.308,74.873,34.707,75.318,34.04,75.318z M36.636,57.715l-0.063,0.94l0.248-0.918       C36.758,57.729,36.697,57.723,36.636,57.715z"/></svg>