<?xml version="1.0" encoding="UTF-8" standalone="no"?>
<!-- Created with Inkscape (http://www.inkscape.org/) -->

<svg
   width="359mm"
   height="359mm"
   viewBox="0 0 359 359"
   version="1.1"
   id="svg5"
   xml:space="preserve"
   inkscape:export-filename=".\bitmap.svg"
   inkscape:export-xdpi="96"
   inkscape:export-ydpi="96"
   xmlns:inkscape="http://www.inkscape.org/namespaces/inkscape"
   xmlns:sodipodi="http://sodipodi.sourceforge.net/DTD/sodipodi-0.dtd"
   xmlns="http://www.w3.org/2000/svg"
   xmlns:svg="http://www.w3.org/2000/svg"><sodipodi:namedview
     id="namedview7"
     pagecolor="#ffffff"
     bordercolor="#000000"
     borderopacity="0.25"
     inkscape:showpageshadow="2"
     inkscape:pageopacity="0.0"
     inkscape:pagecheckerboard="0"
     inkscape:deskcolor="#d1d1d1"
     inkscape:document-units="mm"
     showgrid="false" /><defs
     id="defs2" /><g
     inkscape:label="Layer 1"
     inkscape:groupmode="layer"
     id="layer1"><path
       style="fill:#0052ef;fill-opacity:1;stroke:#002aff;stroke-width:0.508062;stroke-linecap:round;stroke-linejoin:round;stroke-opacity:1;paint-order:stroke fill markers"
       d="m 172.77821,10.482013 0.36139,116.386127 c -16.1899,1.65817 -26.83494,7.66656 -34.69401,15.86069 L 25.449124,85.094239 Z M 277.77035,127.83704 Z"
       id="path356"
       sodipodi:nodetypes="ccccc" /><path
       style="fill:#e1722a;fill-opacity:1;stroke:#e1722a;stroke-width:0.508062;stroke-linecap:round;stroke-linejoin:round;stroke-opacity:1;paint-order:stroke fill markers"
       d="M 192.75398,11.166267 192.39259,127.5524 c 16.18989,1.65816 26.83495,7.66656 34.69401,15.86069 L 340.08305,85.778491 Z M 87.76182,128.5213 Z"
       id="path356-3"
       sodipodi:nodetypes="ccccc" /><path
       style="fill:#0052ef;fill-opacity:1;stroke:#002aff;stroke-width:0.508062;stroke-linecap:round;stroke-linejoin:round;stroke-opacity:1;paint-order:stroke fill markers"
       d="M 15.130442,99.167794 V 164.17426 L 81.868226,198.5763 123.3083,177.13087 c -1.31795,-11.92141 1.87235,-15.80425 4.57767,-20.55187 z"
       id="path6663"
       sodipodi:nodetypes="cccccc" /><path
       style="fill:#0052ef;fill-opacity:1;stroke:none;stroke-width:3.63169;stroke-linecap:round;stroke-linejoin:round;stroke-opacity:1;paint-order:stroke fill markers"
       id="path6717"
       sodipodi:type="arc"
       sodipodi:cx="182.10922"
       sodipodi:cy="177.67351"
       sodipodi:rx="24.454338"
       sodipodi:ry="21.929003"
       sodipodi:start="4.3748008"
       sodipodi:end="4.367337"
       sodipodi:arc-type="chord"
       d="m 174.00964,156.98226 a 24.454338,21.929003 0 0 1 31.15847,13.38949 24.454338,21.929003 0 0 1 -14.87325,27.96576 24.454338,21.929003 0 0 1 -31.21398,-13.28513 24.454338,21.929003 0 0 1 14.75677,-28.01533 z"
       sodipodi:open="true" /><path
       style="fill:#e2732b;fill-opacity:1;stroke:none;stroke-width:0.508062;stroke-linecap:round;stroke-linejoin:round;stroke-opacity:1;paint-order:stroke fill markers"
       d="m 14.648582,184.72613 66.255921,33.73188 45.535887,-23.45594 c 8.53858,18.26324 22.10292,31.28412 46.01776,33.50847 L 172.94,342.88616 21.394638,265.36988 c -3.489285,-2.44563 -6.136222,-5.45533 -6.746056,-9.82916 z"
       id="path6825"
       sodipodi:nodetypes="cccccccc" /><path
       style="fill:#0052ef;fill-opacity:1;stroke:none;stroke-width:0.508062;stroke-linecap:round;stroke-linejoin:round;stroke-opacity:1;paint-order:stroke fill markers"
       d="m 191.56633,229.24769 c 37.04784,-11.2287 59.11848,-31.13664 44.976,-72.02999 l 113.63256,-58.761317 0.17037,157.644577 c -1.34058,5.27856 -4.16228,7.35277 -6.81452,9.79357 l -151.62369,77.40063 z"
       id="path6827"
       sodipodi:nodetypes="ccccccc" /></g></svg>
